<svg width="214" height="32" viewBox="0 0 214 32" fill="none" xmlns="http://www.w3.org/2000/svg">
<path d="M29.1412 11.1205C30.3277 9.92883 31.9796 9.33334 34.0983 9.33334C35.2121 9.33334 36.1937 9.48926 37.0424 9.80109C37.8912 10.1129 38.5166 10.4916 38.9189 10.9357C39.3205 11.3799 39.6487 11.8293 39.9049 12.2833C40.1604 12.7373 40.3065 13.1159 40.3432 13.4179L40.4254 13.9001H36.8375C36.8191 13.8627 36.8008 13.8005 36.7825 13.716C36.7641 13.6308 36.687 13.4939 36.5497 13.3046C36.4125 13.1159 36.2575 12.9456 36.0842 12.7943C35.9103 12.6429 35.6459 12.506 35.2899 12.3829C34.9338 12.2603 34.5366 12.1988 34.0983 12.1988C33.0573 12.1988 32.2674 12.5204 31.7292 13.1631C31.1903 13.8064 30.9215 14.7137 30.9215 15.8864C30.9215 17.059 31.1954 18.0279 31.7431 18.7374C32.2908 19.4462 33.0757 19.8013 34.0983 19.8013C34.7921 19.8013 35.367 19.6172 35.8237 19.2483C36.2797 18.8795 36.563 18.5061 36.6724 18.1275L36.8369 17.5883H40.3976C40.3792 17.7206 40.3514 17.9001 40.3153 18.1275C40.278 18.3541 40.1275 18.7616 39.8631 19.3473C39.5981 19.9336 39.2648 20.4492 38.8632 20.8933C38.461 21.3381 37.8406 21.7443 37.0007 22.1131C36.1608 22.4819 35.1931 22.6667 34.0977 22.6667C31.9613 22.6667 30.2998 22.062 29.1134 20.8507C27.9262 19.6408 27.333 17.9853 27.333 15.8864C27.333 13.9197 27.9351 12.3311 29.1406 11.1205H29.1412Z" fill="#D2D8DB"/>
<path d="M43.054 11.2338C44.2955 9.96683 46.0025 9.33334 48.1756 9.33334C50.3487 9.33334 52.0601 9.96683 53.3111 11.2338C54.5614 12.5008 55.1869 14.0901 55.1869 15.9997C55.1869 17.9093 54.5659 19.5169 53.3243 20.7656C52.0645 22.0325 50.348 22.666 48.1756 22.666C46.0031 22.666 44.2904 22.028 43.0401 20.7512C41.7891 19.475 41.1636 17.891 41.1636 15.9997C41.1636 14.1084 41.7941 12.5008 43.054 11.2338ZM44.7521 15.9997C44.7521 17.0963 45.0437 18.0043 45.6287 18.723C46.2131 19.4416 47.0618 19.8006 48.1762 19.8006C49.2906 19.8006 50.1159 19.437 50.7098 18.7085C51.3024 17.9807 51.5997 17.0773 51.5997 15.999C51.5997 14.8644 51.3075 13.9472 50.7231 13.2469C50.1387 12.5473 49.2893 12.1975 48.1762 12.1975C47.0631 12.1975 46.2131 12.5479 45.6287 13.2469C45.0443 13.9466 44.7521 14.8644 44.7521 15.9997Z" fill="#D2D8DB"/>
<path d="M59.9252 9.617V11.4041C60.7645 10.0422 62.0066 9.35234 63.6497 9.33334H63.8414C65.85 9.33334 67.2648 9.88232 68.0864 10.979C68.9079 12.0763 69.3184 13.6459 69.3184 15.6885V22.3837H65.7855V15.6885C65.7855 13.4002 64.964 12.2466 63.3208 12.2276H63.2386C62.1432 12.2276 61.3394 12.601 60.8284 13.3485C60.3167 14.096 60.0612 15.1598 60.0612 16.5401V22.3843H56.5283V9.617H59.9246H59.9252Z" fill="#D2D8DB"/>
<path d="M72.3311 11.1205C73.5176 9.92883 75.1696 9.33334 77.2883 9.33334C78.402 9.33334 79.3836 9.48926 80.2323 9.80109C81.0811 10.1129 81.7066 10.4916 82.1088 10.9357C82.5104 11.3799 82.8387 11.8293 83.0948 12.2833C83.3503 12.7373 83.4964 13.1159 83.5331 13.4179L83.6153 13.9001H80.0274C80.0091 13.8627 79.9907 13.8005 79.9724 13.716C79.9541 13.6308 79.8769 13.4939 79.7397 13.3046C79.6024 13.1159 79.4475 12.9456 79.2742 12.7943C79.1002 12.6429 78.8359 12.506 78.4798 12.3829C78.1237 12.2603 77.7266 12.1988 77.2883 12.1988C76.2473 12.1988 75.4573 12.5204 74.9191 13.1631C74.3803 13.8064 74.1115 14.7137 74.1115 15.8864C74.1115 17.059 74.3853 18.0279 74.933 18.7374C75.4807 19.4462 76.2656 19.8013 77.2883 19.8013C77.9821 19.8013 78.557 19.6172 79.0136 19.2483C79.4696 18.8795 79.7529 18.5061 79.8624 18.1275L80.0268 17.5883H83.5875C83.5692 17.7206 83.5413 17.9001 83.5053 18.1275C83.468 18.3541 83.3174 18.7616 83.0531 19.3473C82.7881 19.9336 82.4548 20.4492 82.0532 20.8933C81.6509 21.3381 81.0305 21.7443 80.1906 22.1131C79.3507 22.4819 78.3831 22.6667 77.2876 22.6667C75.1512 22.6667 73.4898 22.062 72.3033 20.8507C71.1162 19.6408 70.5229 17.9853 70.5229 15.8864C70.5229 13.9197 71.125 12.3311 72.3305 11.1205H72.3311Z" fill="#D2D8DB"/>
<path d="M86.1073 11.1775C87.2754 9.94849 88.8825 9.33334 90.9272 9.33334C92.9719 9.33334 94.5012 9.94325 95.6244 11.163C96.7477 12.3829 97.3086 14.0049 97.3086 16.0285C97.3086 16.3692 97.2903 16.719 97.2536 17.078H87.8048C87.8775 17.9106 88.2108 18.5723 88.8047 19.0636C89.3979 19.5556 90.1234 19.8013 90.9822 19.8013C91.3838 19.8013 91.7443 19.7541 92.0644 19.6591C92.3831 19.5648 92.6298 19.456 92.8037 19.3329C92.977 19.2103 93.1231 19.0826 93.242 18.9503C93.3603 18.8179 93.438 18.7046 93.4747 18.6096L93.5291 18.4675H97.0626C97.0443 18.5808 97.0032 18.7328 96.9393 18.9214C96.8748 19.1108 96.7021 19.4462 96.4188 19.9283C96.1354 20.4105 95.7933 20.8363 95.3917 21.2051C94.9894 21.574 94.3962 21.91 93.6113 22.212C92.8258 22.514 91.9404 22.666 90.9544 22.666C88.9824 22.666 87.3893 22.0659 86.175 20.8645C84.9607 19.6637 84.3535 18.0515 84.3535 16.0279C84.3535 14.0042 84.9373 12.4248 86.1067 11.1768L86.1073 11.1775ZM93.8852 14.6384V14.5532C93.8852 13.8346 93.6113 13.2627 93.0636 12.8368C92.5159 12.411 91.8126 12.1988 90.955 12.1988C90.0974 12.1988 89.3619 12.4254 88.8047 12.8794C88.2475 13.3334 87.9148 13.9197 87.8048 14.6384H93.8846H93.8852Z" fill="#D2D8DB"/>
<path d="M98.6509 9.617H102.102V11.5181C102.831 10.2511 103.936 9.617 105.416 9.617H106.867V12.6809H105.498C104.055 12.6809 103.143 13.0452 102.759 13.773C102.375 14.5015 102.184 16.0757 102.184 18.4963V22.383H98.6509V9.617Z" fill="#D2D8DB"/>
<path d="M108.866 11.2338C110.107 9.96683 111.814 9.33334 113.988 9.33334C116.161 9.33334 117.872 9.96683 119.123 11.2338C120.373 12.5008 121 14.0901 121 15.9997C121 17.9093 120.378 19.5169 119.137 20.7656C117.877 22.0325 116.16 22.666 113.988 22.666C111.815 22.666 110.102 22.028 108.852 20.7512C107.601 19.475 106.976 17.891 106.976 15.9997C106.976 14.1084 107.606 12.5008 108.865 11.2338H108.866ZM110.564 15.9997C110.564 17.0963 110.856 18.0043 111.441 18.723C112.024 19.4416 112.874 19.8006 113.988 19.8006C115.101 19.8006 115.927 19.437 116.521 18.7085C117.114 17.9807 117.411 17.0773 117.411 15.999C117.411 14.8644 117.119 13.9472 116.534 13.2469C115.95 12.5473 115.101 12.1975 113.988 12.1975C112.874 12.1975 112.024 12.5479 111.441 13.2469C110.856 13.9466 110.564 14.8637 110.564 15.999V15.9997Z" fill="#D2D8DB"/>
<path d="M15.8643 8.75944H3.82306L5.26014 6.24384C5.34549 6.09195 5.50806 6 5.67794 6H16.5691C16.7325 6 16.882 6.08867 16.9633 6.23071L18.6255 9.13465C18.6808 9.23317 18.6808 9.3555 18.6255 9.45402L16.6699 12.8719L18.4565 16L16.8918 18.7397L13.6421 13.0567C13.5705 12.9319 13.5705 12.7767 13.6421 12.6519L15.8652 8.76026L15.8643 8.75944ZM3.70845 23.0427L5.26665 25.7693C5.34793 25.9105 5.50155 26 5.66412 26H16.552C16.7251 26 16.8845 25.908 16.9722 25.7562L18.4101 23.2406H6.57043L8.68948 19.5361C8.76101 19.4113 8.76101 19.2562 8.68948 19.1314L5.33492 13.2677L3.77347 16.0008L5.66412 19.3062L3.70845 22.7274C3.65317 22.8259 3.65317 22.9483 3.70845 23.0435V23.0427Z" fill="#7E54F1"/>
<path d="M8 22.3333H18.4474C18.679 22.3333 18.8904 22.2084 19.0082 22.0039L22.1962 16.4218C22.3791 16.1022 22.3791 15.707 22.1962 15.3874L19.1188 10L17.5411 12.7615L19.3342 15.905L18.2125 17.8719L17.2996 19.4667L17.2411 19.5686H9.57771L8 22.3333Z" fill="#7E54F1"/>
<path d="M0.135233 16.5303L3.25261 22L4.8081 19.2712L2.9537 16.0188L4.95555 12.5091L5.01966 12.3986H12.7778L14.3333 9.66666H3.83121C3.60282 9.66666 3.39125 9.79006 3.27826 9.99222L0.135233 15.5082C-0.0450778 15.824 -0.0450778 16.2145 0.135233 16.5303Z" fill="#7E54F1"/>
<path d="M209.125 12.12V18.6285C209.125 19.0819 209.231 19.4138 209.441 19.6243C209.668 19.8185 210.04 19.9157 210.558 19.9157H212.137V22.7814H210C207.134 22.7814 205.701 21.389 205.701 18.6043V12.12H204.098V9.32714H205.701V6H209.125V9.32714H212.137V12.12H209.125Z" fill="#84949B"/>
<path d="M202.685 15.7629C202.685 16.2486 202.653 16.6857 202.588 17.0743H192.752C192.833 18.0457 193.173 18.8067 193.772 19.3572C194.371 19.9076 195.108 20.1829 195.982 20.1829C197.245 20.1829 198.144 19.6405 198.678 18.5557H202.345C201.957 19.851 201.212 20.9195 200.111 21.7614C199.01 22.5872 197.658 23 196.055 23C194.76 23 193.594 22.7167 192.558 22.15C191.538 21.5672 190.737 20.7495 190.154 19.6972C189.587 18.6448 189.304 17.4305 189.304 16.0543C189.304 14.6619 189.587 13.4396 190.154 12.3872C190.72 11.3348 191.514 10.5253 192.534 9.95861C193.554 9.39194 194.728 9.10861 196.055 9.10861C197.334 9.10861 198.476 9.38385 199.479 9.93432C200.499 10.4848 201.285 11.27 201.835 12.29C202.402 13.2938 202.685 14.4515 202.685 15.7629ZM199.164 14.7915C199.147 13.9172 198.832 13.221 198.217 12.7029C197.601 12.1686 196.848 11.9015 195.958 11.9015C195.116 11.9015 194.404 12.1605 193.821 12.6786C193.254 13.1805 192.906 13.8848 192.777 14.7915H199.164Z" fill="#84949B"/>
<path d="M181.578 9.13287C183.181 9.13287 184.476 9.64287 185.463 10.6629C186.451 11.6667 186.945 13.0752 186.945 14.8886V22.7814H183.545V15.35C183.545 14.2814 183.278 13.4638 182.743 12.8972C182.209 12.3143 181.481 12.0229 180.558 12.0229C179.619 12.0229 178.874 12.3143 178.323 12.8972C177.789 13.4638 177.522 14.2814 177.522 15.35V22.7814H174.122V9.32716H177.522V11.0029C177.975 10.42 178.55 9.96668 179.246 9.64287C179.959 9.30287 180.736 9.13287 181.578 9.13287Z" fill="#84949B"/>
<path d="M168.665 12.12V18.6285C168.665 19.0819 168.771 19.4138 168.981 19.6243C169.208 19.8185 169.58 19.9157 170.098 19.9157H171.677V22.7814H169.54C166.674 22.7814 165.241 21.389 165.241 18.6043V12.12H163.638V9.32714H165.241V6H168.665V9.32714H171.677V12.12H168.665Z" fill="#84949B"/>
<path d="M156.621 23C155.52 23 154.533 22.8057 153.658 22.4172C152.784 22.0124 152.088 21.47 151.57 20.79C151.068 20.11 150.793 19.3572 150.744 18.5314H154.168C154.233 19.0495 154.484 19.4786 154.921 19.8186C155.375 20.1586 155.933 20.3286 156.597 20.3286C157.245 20.3286 157.747 20.1991 158.103 19.94C158.475 19.681 158.661 19.3491 158.661 18.9443C158.661 18.5072 158.435 18.1834 157.981 17.9729C157.544 17.7462 156.84 17.5034 155.868 17.2443C154.865 17.0014 154.039 16.7505 153.391 16.4915C152.76 16.2324 152.209 15.8357 151.74 15.3015C151.287 14.7672 151.06 14.0467 151.06 13.14C151.06 12.3953 151.27 11.7153 151.691 11.1C152.128 10.4848 152.744 9.99909 153.537 9.6429C154.347 9.28671 155.294 9.10861 156.378 9.10861C157.981 9.10861 159.26 9.51337 160.216 10.3229C161.171 11.1162 161.697 12.1929 161.794 13.5529H158.54C158.491 13.0186 158.265 12.5977 157.86 12.29C157.471 11.9662 156.945 11.8043 156.281 11.8043C155.666 11.8043 155.188 11.9177 154.848 12.1443C154.525 12.371 154.363 12.6867 154.363 13.0915C154.363 13.5448 154.589 13.8929 155.043 14.1357C155.496 14.3624 156.2 14.5972 157.156 14.84C158.127 15.0829 158.928 15.3338 159.56 15.5929C160.191 15.8519 160.734 16.2567 161.187 16.8072C161.656 17.3414 161.899 18.0538 161.916 18.9443C161.916 19.7214 161.697 20.4176 161.26 21.0329C160.839 21.6481 160.224 22.1338 159.414 22.49C158.621 22.83 157.69 23 156.621 23Z" fill="#84949B"/>
<path d="M148.991 15.7629C148.991 16.2486 148.959 16.6857 148.894 17.0743H139.058C139.139 18.0457 139.479 18.8067 140.078 19.3572C140.677 19.9076 141.414 20.1829 142.288 20.1829C143.551 20.1829 144.45 19.6405 144.984 18.5557H148.651C148.263 19.851 147.518 20.9195 146.417 21.7614C145.316 22.5872 143.964 23 142.361 23C141.066 23 139.9 22.7167 138.864 22.15C137.844 21.5672 137.043 20.7495 136.46 19.6972C135.893 18.6448 135.61 17.4305 135.61 16.0543C135.61 14.6619 135.893 13.4396 136.46 12.3872C137.027 11.3348 137.82 10.5253 138.84 9.95861C139.86 9.39194 141.034 9.10861 142.361 9.10861C143.64 9.10861 144.782 9.38385 145.786 9.93432C146.806 10.4848 147.591 11.27 148.141 12.29C148.708 13.2938 148.991 14.4515 148.991 15.7629ZM145.47 14.7915C145.454 13.9172 145.138 13.221 144.523 12.7029C143.907 12.1686 143.155 11.9015 142.264 11.9015C141.422 11.9015 140.71 12.1605 140.127 12.6786C139.56 13.1805 139.212 13.8848 139.083 14.7915H145.47Z" fill="#84949B"/>
<path d="M131.027 12.12V18.6285C131.027 19.0819 131.132 19.4138 131.343 19.6243C131.57 19.8185 131.942 19.9157 132.46 19.9157H134.039V22.7814H131.901C129.036 22.7814 127.603 21.389 127.603 18.6043V12.12H126V9.32714H127.603V6H131.027V9.32714H134.039V12.12H131.027Z" fill="#84949B"/>
</svg>
