<svg width="134" height="134" viewBox="0 0 134 134" fill="none" xmlns="http://www.w3.org/2000/svg">
<path d="M0 67C0 29.9969 29.9969 0 67 0V0C104.003 0 134 29.9969 134 67V67C134 104.003 104.003 134 67 134V134C29.9969 134 0 104.003 0 67V67Z" fill="url(#paint0_linear_438_6171)"/>
<path fillRule="evenodd" clipRule="evenodd" d="M80.2523 103.868L72.4427 99.5303C75.1368 94.6797 80.8188 92.3261 86.1537 93.851L83.6985 102.44C82.3576 102.057 80.9295 102.649 80.2523 103.868ZM53.7475 103.868C59.5228 114.266 74.4771 114.266 80.2523 103.868L72.4427 99.5303C70.0708 103.801 63.9291 103.801 61.5572 99.5304L53.7475 103.868ZM102.44 83.6986C105.709 95.1352 95.1351 105.709 83.6985 102.44L86.1537 93.851C90.8507 95.1937 95.1936 90.8508 93.851 86.1538L102.44 83.6986ZM103.868 80.2524C102.649 80.9296 102.057 82.3577 102.44 83.6986L93.851 86.1538C92.326 80.8189 94.6796 75.1368 99.5303 72.4428L103.868 80.2524ZM30.1321 80.2524C19.7336 74.4771 19.7336 59.5229 30.1321 53.7476C31.3513 53.0704 31.9428 51.6423 31.5595 50.3014C28.2905 38.8648 38.8647 28.2906 50.3013 31.5596C51.6422 31.9429 53.0704 31.3514 53.7475 30.1322C59.5228 19.7337 74.477 19.7337 80.2523 30.1322C80.9295 31.3514 82.3576 31.9429 83.6985 31.5596C95.1351 28.2906 105.709 38.8648 102.44 50.3014C102.057 51.6423 102.649 53.0704 103.868 53.7476C114.266 59.5229 114.266 74.4771 103.868 80.2524L99.5303 72.4428C103.801 70.0709 103.801 63.9291 99.5303 61.5572C94.6796 58.8632 92.326 53.1811 93.851 47.8462C95.1936 43.1492 90.8507 38.8063 86.1537 40.149C80.8188 41.6739 75.1367 39.3203 72.4427 34.4697C70.0708 30.199 63.9291 30.199 61.5572 34.4696C58.8631 39.3203 53.181 41.6739 47.8461 40.149C43.1491 38.8064 38.8063 43.1492 40.1489 47.8462C41.6738 53.1811 39.3202 58.8632 34.4696 61.5572C30.1989 63.9291 30.1989 70.0709 34.4696 72.4428L30.1321 80.2524ZM30.1321 80.2524C31.3513 80.9296 31.9428 82.3577 31.5595 83.6986C28.2905 95.1352 38.8647 105.709 50.3013 102.44C51.6422 102.057 53.0704 102.649 53.7475 103.868L61.5572 99.5304C58.8631 94.6797 53.181 92.3261 47.8461 93.8511C43.1491 95.1937 38.8063 90.8508 40.1489 86.1538C41.6738 80.8189 39.3202 75.1368 34.4696 72.4428L30.1321 80.2524Z" fill="url(#paint1_radial_438_6171)"/>
<defs>
<linearGradient id="paint0_linear_438_6171" x1="67" y1="0" x2="67" y2="134" gradientUnits="userSpaceOnUse">
<stop offset="0.200737" stop-color="#AD9FF6"/>
<stop offset="1" stop-color="#5925E6"/>
</linearGradient>
<radialGradient id="paint1_radial_438_6171" cx="0" cy="0" r="1" gradientUnits="userSpaceOnUse" gradientTransform="translate(66.9999 22.3333) rotate(90) scale(89.3333)">
<stop stop-color="#D9D2FB"/>
<stop offset="0.6" stop-color="#F3F1FE"/>
<stop offset="1" stop-color="#F8F7FE"/>
</radialGradient>
</defs>
</svg>
