<svg width="40" height="40" viewBox="0 0 40 40" fill="none" xmlns="http://www.w3.org/2000/svg">
<g clip-path="url(#clip0_3366_8917)">
<path d="M36.6667 0H3.33333C1.49238 0 0 1.49238 0 3.33333V36.6667C0 38.5076 1.49238 40 3.33333 40H36.6667C38.5076 40 40 38.5076 40 36.6667V3.33333C40 1.49238 38.5076 0 36.6667 0Z" fill="#F3F5F6"/>
<path fillRule="evenodd" clipRule="evenodd" d="M11.0405 25.8C11.6789 26.001 12.3705 26.1015 13.1153 26.1015C14.8296 26.1015 16.1951 25.7055 17.2117 24.9134C18.2284 24.1095 18.9378 22.8976 19.3397 21.278C19.458 20.7696 19.5703 20.2613 19.6767 19.753C19.7949 19.2446 19.8954 18.7303 19.9781 18.2102C20.12 17.4063 20.0964 16.7028 19.9072 16.0999C19.7299 15.497 19.4166 14.9886 18.9673 14.5748C18.5299 14.1611 17.992 13.8536 17.3536 13.6527C16.7271 13.4399 16.0413 13.3335 15.2965 13.3335C13.5705 13.3335 12.1991 13.7472 11.1824 14.5748C10.1657 15.4024 9.46228 16.6142 9.07214 18.2102C8.95389 18.7303 8.83573 19.2446 8.71748 19.753C8.61108 20.2613 8.51056 20.7696 8.41601 21.278C8.286 22.0819 8.30961 22.7854 8.48694 23.3883C8.67613 23.9912 8.98936 24.4936 9.42681 24.8956C9.86426 25.2976 10.4021 25.5991 11.0405 25.8ZM15.0305 22.9804C14.5459 23.3587 13.9843 23.5479 13.3459 23.5479C12.6956 23.5479 12.2287 23.3587 11.9449 22.9804C11.6612 22.6021 11.5903 21.9992 11.7321 21.1716C11.8267 20.6515 11.9213 20.1608 12.0159 19.6998C12.1223 19.2387 12.2405 18.7599 12.3705 18.2634C12.5715 17.4358 12.9084 16.8328 13.3813 16.4546C13.866 16.0763 14.4276 15.8871 15.066 15.8871C15.7044 15.8871 16.1714 16.0763 16.4669 16.4546C16.7625 16.8328 16.8335 17.4358 16.6797 18.2634C16.597 18.7599 16.5024 19.2387 16.396 19.6998C16.3015 20.1608 16.1891 20.6515 16.0591 21.1716C15.8581 21.9992 15.5152 22.6021 15.0305 22.9804ZM20.42 25.8C20.4909 25.8828 20.5855 25.9242 20.7037 25.9242H23.1155C23.2455 25.9242 23.3577 25.8828 23.4524 25.8C23.5588 25.7172 23.6237 25.6108 23.6475 25.4808L24.4632 21.5972H26.8572C28.3823 21.5972 29.594 21.2721 30.4925 20.6219C31.4028 19.9716 32.0057 18.9668 32.3013 17.6072C32.4432 16.9215 32.4372 16.3245 32.2836 15.8162C32.1299 15.296 31.858 14.8644 31.4679 14.5216C31.0777 14.1788 30.5871 13.9246 29.996 13.7591C29.4167 13.5936 28.7664 13.5108 28.0453 13.5108H23.3283C23.21 13.5108 23.0977 13.5522 22.9913 13.635C22.8849 13.7177 22.8199 13.8241 22.7963 13.9542L20.3491 25.4808C20.3253 25.6108 20.3491 25.7172 20.42 25.8ZM26.9636 19.15H24.9243L25.6159 15.9758H27.7439C28.1695 15.9758 28.4827 16.0467 28.6837 16.1886C28.8965 16.3304 29.0207 16.5196 29.0561 16.756C29.0916 16.9924 29.0797 17.2644 29.0207 17.5718C28.9024 18.1038 28.6483 18.4998 28.2581 18.7599C27.8797 19.02 27.4483 19.15 26.9636 19.15Z" fill="#A2AEB3"/>
</g>
<defs>
<clipPath id="clip0_3366_8917">
<path d="M0 12C0 5.37258 5.37258 0 12 0H28C34.6274 0 40 5.37258 40 12V28C40 34.6274 34.6274 40 28 40H12C5.37258 40 0 34.6274 0 28V12Z" fill="white"/>
</clipPath>
</defs>
</svg>
