<svg width="40" height="40" viewBox="0 0 40 40" fill="none" xmlns="http://www.w3.org/2000/svg">
<g clip-path="url(#clip0_3366_8905)">
<rect width="40" height="40" fill="#F3F5F6"/>
<path d="M10.8335 15.1649V24.0068C10.8335 24.5678 11.1306 25.0914 11.6186 25.3692L19.2151 29.7875C19.6978 30.0706 20.2972 30.0706 20.78 29.7875L28.3817 25.3692C28.8645 25.086 29.1668 24.5678 29.1668 24.0068V15.1649C29.1668 14.6039 28.8698 14.0803 28.3817 13.7972L20.78 9.37887C20.2972 9.09571 19.6978 9.09571 19.2151 9.37887L11.6133 13.7972C11.1359 14.0803 10.8335 14.5986 10.8335 15.1649Z" fill="#F3F5F6"/>
<path d="M21.5651 21.4607L20.4546 24.4847C20.422 24.5657 20.422 24.6629 20.4546 24.7439L22.3561 29.9495L24.561 28.6805L21.9173 21.4553C21.8577 21.2933 21.6247 21.2933 21.5651 21.4607Z" fill="#A2AEB3"/>
<path d="M23.7811 16.3687C23.7215 16.2013 23.4886 16.2013 23.4235 16.3687L22.313 19.3927C22.2804 19.4791 22.2804 19.5709 22.313 19.6519L25.4334 28.1785L27.6384 26.9095L23.7811 16.3687Z" fill="#A2AEB3"/>
<path d="M20 9.77697C20.0535 9.77697 20.107 9.79356 20.1551 9.82121L28.4438 14.771C28.5401 14.8263 28.5989 14.9314 28.5989 15.0476V24.9472C28.5989 25.0634 28.5401 25.1685 28.4438 25.2238L20.1551 30.1791C20.107 30.2068 20.0535 30.2234 20 30.2234C19.9465 30.2234 19.893 30.2068 19.8449 30.1791L11.5561 25.2293C11.4599 25.174 11.4011 25.0689 11.4011 24.9528V15.0476C11.4011 14.9314 11.4599 14.8263 11.5561 14.771L19.8449 9.82121C19.893 9.79356 19.9465 9.77697 20 9.77697ZM20 8.3335C19.7059 8.3335 19.4064 8.41645 19.1444 8.57131L10.8556 13.5211C10.3316 13.8364 10 14.4171 10 15.0476V24.9472C10 25.5777 10.3262 26.1639 10.8556 26.4792L19.1444 31.429C19.4064 31.5894 19.7005 31.6668 20 31.6668C20.2995 31.6668 20.5936 31.5839 20.8556 31.429L29.1444 26.4792C29.6738 26.1639 30 25.5832 30 24.9472V15.0476C30 14.4171 29.6738 13.8309 29.1444 13.5156L20.8556 8.57131C20.5882 8.41645 20.2941 8.3335 20 8.3335Z" fill="#A2AEB3"/>
<path d="M14.1665 27.8521L14.9998 25.8335L16.6665 27.0654L15.1106 28.3335L14.1665 27.8521Z" fill="#F3F5F6"/>
<path d="M19.1595 14.2031H17.0304C16.8733 14.2031 16.727 14.3003 16.6729 14.4515L12.1113 26.9255L14.3162 28.1945L19.3437 14.4569C19.387 14.3327 19.2949 14.2031 19.1595 14.2031Z" fill="#A2AEB3"/>
<path d="M22.8867 14.2031H20.7576C20.6005 14.2031 20.4542 14.3003 20.4001 14.4515L15.1938 28.6913L17.3988 29.9603L23.0655 14.4569C23.1142 14.3327 23.0167 14.2031 22.8867 14.2031Z" fill="#A2AEB3"/>
</g>
<defs>
<clipPath id="clip0_3366_8905">
<path d="M0 12C0 5.37258 5.37258 0 12 0H28C34.6274 0 40 5.37258 40 12V28C40 34.6274 34.6274 40 28 40H12C5.37258 40 0 34.6274 0 28V12Z" fill="white"/>
</clipPath>
</defs>
</svg>
