<svg width="40" height="40" viewBox="0 0 40 40" fill="none" xmlns="http://www.w3.org/2000/svg">
<g clip-path="url(#clip0_3366_8902)">
<g clip-path="url(#clip1_3366_8902)">
<rect width="40" height="40" fill="#F3F5F6"/>
<path d="M32.3355 6.86182H7.63818V29.3086H32.3355V6.86182Z" fill="#A2AEB3"/>
<path fillRule="evenodd" clipRule="evenodd" d="M39.9866 19.9998C39.9866 31.0309 31.0383 39.9732 19.9999 39.9732C8.96153 39.9732 0.0131836 31.0309 0.0131836 19.9998C0.0131836 8.96876 8.96153 0.0263672 19.9999 0.0263672C31.0383 0.0263672 39.9866 8.96876 39.9866 19.9998ZM14.3362 27.9482H10.4574C9.6423 27.9482 9.23969 27.9482 8.99421 27.7913C8.72906 27.6195 8.56704 27.3349 8.5474 27.0208C8.53265 26.7314 8.73398 26.378 9.13659 25.6714L18.714 8.80124C19.1215 8.08485 19.3277 7.72666 19.5879 7.59419C19.8678 7.4519 20.2017 7.4519 20.4816 7.59419C20.7418 7.72666 20.948 8.08485 21.3555 8.80124L23.3244 12.2359L23.3345 12.2534C23.7746 13.022 23.9978 13.4117 24.0953 13.8208C24.2033 14.2673 24.2033 14.7383 24.0953 15.1848C23.9971 15.597 23.7761 15.9895 23.3293 16.7697L18.2986 25.6567L18.2855 25.6795C17.8425 26.4544 17.6179 26.8471 17.3068 27.1434C16.968 27.4673 16.5604 27.7027 16.1136 27.8354C15.7061 27.9482 15.2495 27.9482 14.3362 27.9482ZM24.1316 27.9482H29.6896C30.5095 27.9482 30.922 27.9482 31.1677 27.7865C31.4327 27.6147 31.5996 27.325 31.6145 27.0112C31.6286 26.7312 31.4317 26.3915 31.0458 25.726C31.0325 25.7034 31.0192 25.6803 31.0056 25.6568L28.2216 20.8974L28.1899 20.8438C27.7987 20.1827 27.6012 19.8488 27.3476 19.7198C27.0679 19.5775 26.7387 19.5775 26.4589 19.7198C26.2036 19.8522 25.9974 20.2006 25.5899 20.9023L22.8157 25.6618L22.8062 25.6782C22.4001 26.3787 22.1972 26.7288 22.2118 27.016C22.2315 27.3301 22.3935 27.6195 22.6586 27.7913C22.8992 27.9482 23.3117 27.9482 24.1316 27.9482Z" fill="#F3F5F6"/>
</g>
</g>
<defs>
<clipPath id="clip0_3366_8902">
<path d="M0 12C0 5.37258 5.37258 0 12 0H28C34.6274 0 40 5.37258 40 12V28C40 34.6274 34.6274 40 28 40H12C5.37258 40 0 34.6274 0 28V12Z" fill="white"/>
</clipPath>
<clipPath id="clip1_3366_8902">
<rect width="40" height="40" fill="white"/>
</clipPath>
</defs>
</svg>
