<svg width="40" height="40" viewBox="0 0 40 40" fill="none" xmlns="http://www.w3.org/2000/svg">
<g clip-path="url(#clip0_3366_10193)">
<path d="M36.6667 0H3.33333C1.49238 0 0 1.49238 0 3.33333V36.6667C0 38.5076 1.49238 40 3.33333 40H36.6667C38.5076 40 40 38.5076 40 36.6667V3.33333C40 1.49238 38.5076 0 36.6667 0Z" fill="#F3F5F6"/>
<path d="M30 10H10V30H30V23.0183H26.6789C25.5352 25.5666 22.9608 27.3368 20.0157 27.3368C15.953 27.3368 12.6632 24.0157 12.6632 19.9843C12.658 15.953 15.953 12.6632 20.0157 12.6632C23.0183 12.6632 25.5927 14.4909 26.7363 17.0966H30V10Z" fill="#A2AEB3"/>
</g>
<defs>
<clipPath id="clip0_3366_10193">
<path d="M0 12C0 5.37258 5.37258 0 12 0H28C34.6274 0 40 5.37258 40 12V28C40 34.6274 34.6274 40 28 40H12C5.37258 40 0 34.6274 0 28V12Z" fill="white"/>
</clipPath>
</defs>
</svg>
