<svg width="40" height="40" viewBox="0 0 40 40" fill="none" xmlns="http://www.w3.org/2000/svg">
<g clip-path="url(#clip0_3366_10071)">
<path d="M36.6667 0H3.33333C1.49238 0 0 1.49238 0 3.33333V36.6667C0 38.5076 1.49238 40 3.33333 40H36.6667C38.5076 40 40 38.5076 40 36.6667V3.33333C40 1.49238 38.5076 0 36.6667 0Z" fill="#F3F5F6"/>
<path d="M13.8319 25.189H11.7321L11.6665 8.3335H15.1442L20.0655 23.3382L24.9211 8.3335H28.3332V25.189H26.2334V10.3826L21.3122 25.189H18.6875L13.8319 10.5809V25.189Z" fill="#A2AEB3"/>
<path d="M14.4224 31.6668V28.0313H18.097V31.6668H14.4224Z" fill="#A2AEB3"/>
<path d="M22.0996 31.6668V28.0313H25.7085V31.6668H22.0996Z" fill="#A2AEB3"/>
</g>
<defs>
<clipPath id="clip0_3366_10071">
<path d="M0 12C0 5.37258 5.37258 0 12 0H28C34.6274 0 40 5.37258 40 12V28C40 34.6274 34.6274 40 28 40H12C5.37258 40 0 34.6274 0 28V12Z" fill="white"/>
</clipPath>
</defs>
</svg>
