<svg width="40" height="40" viewBox="0 0 40 40" fill="none" xmlns="http://www.w3.org/2000/svg">
<g clip-path="url(#clip0_3366_8908)">
<rect width="40" height="40" fill="#F3F5F6"/>
<path d="M24.3115 11.0645L18.7302 14.27V24.2746L15.6506 26.0597L12.5522 24.2731V20.7012L15.6506 18.932L17.6428 20.0874V17.1975L15.6332 16.0566L10.0532 19.2984V25.7108L15.6521 28.9351L21.2319 25.7108V15.7077L24.3304 13.921L27.4273 15.7077V19.2636L24.3304 21.0661L22.3207 19.9006V22.776L24.3115 23.9241L29.9465 20.7187V14.27L24.3115 11.0645Z" fill="#A2AEB3"/>
</g>
<defs>
<clipPath id="clip0_3366_8908">
<path d="M0 12C0 5.37258 5.37258 0 12 0H28C34.6274 0 40 5.37258 40 12V28C40 34.6274 34.6274 40 28 40H12C5.37258 40 0 34.6274 0 28V12Z" fill="white"/>
</clipPath>
</defs>
</svg>
