<svg width="40" height="40" viewBox="0 0 40 40" fill="none" xmlns="http://www.w3.org/2000/svg">
<g clip-path="url(#clip0_3366_8911)">
<rect width="40" height="40" fill="#F3F5F6"/>
<rect width="40" height="40" fill="#F3F5F6"/>
<path d="M19.981 30.8332C25.9746 30.8332 30.8332 25.9829 30.8332 19.9998C30.8332 14.0167 25.9746 9.1665 19.981 9.1665C14.2947 9.1665 9.6298 13.5322 9.1665 19.0892H23.5107V20.9104H9.1665C9.6298 26.4673 14.2947 30.8332 19.981 30.8332Z" fill="#A2AEB3"/>
</g>
<defs>
<clipPath id="clip0_3366_8911">
<path d="M0 12C0 5.37258 5.37258 0 12 0H28C34.6274 0 40 5.37258 40 12V28C40 34.6274 34.6274 40 28 40H12C5.37258 40 0 34.6274 0 28V12Z" fill="white"/>
</clipPath>
</defs>
</svg>
