<svg width="24" height="24" viewBox="0 0 24 24" fill="none" xmlns="http://www.w3.org/2000/svg">
<path d="M0 8C0 3.58172 3.58172 0 8 0H16C20.4183 0 24 3.58172 24 8V16C24 20.4183 20.4183 24 16 24H8C3.58172 24 0 20.4183 0 16V8Z" fill="#836EF9"/>
<path d="M11.9999 5C9.97852 5 5 9.9784 5 11.9999C5 14.0215 9.97852 19 11.9999 19C14.0214 19 19 14.0214 19 11.9999C19 9.97852 14.0214 5 11.9999 5ZM10.9092 16.0028C10.0567 15.7705 7.76492 11.7615 7.99724 10.9091C8.22956 10.0566 12.2384 7.7649 13.0908 7.99722C13.9433 8.22951 16.2351 12.2384 16.0028 13.0908C15.7705 13.9433 11.7615 16.2351 10.9092 16.0028Z" fill="#FEFEFE"/>
</svg>
