<svg width="24" height="24" viewBox="0 0 24 24" fill="none" xmlns="http://www.w3.org/2000/svg">
<path d="M0 8C0 3.58172 3.58172 0 8 0H16C20.4183 0 24 3.58172 24 8V16C24 20.4183 20.4183 24 16 24H8C3.58172 24 0 20.4183 0 16V8Z" fill="#3E6956"/>
<mask id="mask0_372_7404" style="mask-type:luminance" maskUnits="userSpaceOnUse" x="5" y="5" width="14" height="14">
<path d="M19 5H5V19H19V5Z" fill="white"/>
</mask>
<g mask="url(#mask0_372_7404)">
<path d="M7.30378 11.1606C7.2974 10.755 7.42931 10.3592 7.67781 10.0386L10.2287 12.5894C9.90716 12.8363 9.51192 12.9681 9.10654 12.9634C8.62905 12.9615 8.17165 12.7709 7.83399 12.4333C7.49633 12.0956 7.30575 11.6381 7.30378 11.1606Z" fill="#F1EBDD"/>
<path d="M14.8926 12.9607C15.1314 12.9616 15.368 12.9154 15.5889 12.8244C15.8098 12.7336 16.0105 12.5999 16.1794 12.4311C16.3484 12.2623 16.4823 12.0617 16.5734 11.841C16.6645 11.6202 16.711 11.3836 16.7103 11.1448C16.7148 10.7394 16.5831 10.3443 16.3363 10.0227L13.7779 12.581C14.0959 12.8298 14.4888 12.9636 14.8926 12.9607Z" fill="#F1EBDD"/>
<path d="M16.8659 9.50512C17.2592 9.96693 17.4753 10.5536 17.4756 11.1602C17.4751 11.8423 17.2038 12.4963 16.7212 12.9785C16.2387 13.4607 15.5844 13.7316 14.9023 13.7316C14.2989 13.7322 13.7147 13.5196 13.2528 13.1312L12.0148 14.3693L10.7768 13.1312C10.3146 13.5203 9.72964 13.7331 9.12552 13.7316C8.78691 13.7328 8.45147 13.6672 8.1383 13.5385C7.82513 13.4099 7.54044 13.2207 7.30052 12.9818C7.06061 12.743 6.87018 12.4591 6.74016 12.1465C6.61015 11.8339 6.5431 11.4987 6.54286 11.1602C6.54333 10.5564 6.7558 9.97197 7.14316 9.50885L6.56529 8.93099L6.01362 8.36993C5.34904 9.46262 4.99834 10.7172 5.00001 11.9961C4.99976 12.9153 5.18067 13.8256 5.53238 14.6749C5.88409 15.5241 6.39971 16.2957 7.04979 16.9457C7.69985 17.5956 8.47163 18.1109 9.32096 18.4624C10.1704 18.8139 11.0807 18.9946 11.9999 18.9941C13.8549 18.9936 15.6339 18.257 16.9464 16.946C18.2587 15.635 18.9973 13.8568 18.9997 12.0017C19.0113 10.7231 18.664 9.46679 17.9974 8.37553L16.8659 9.50512Z" fill="#F1EBDD"/>
<path d="M17.0697 7.16934C16.4169 6.48303 15.6313 5.93677 14.7606 5.56382C13.89 5.19087 12.9526 4.99903 12.0054 5C11.058 4.99954 10.1205 5.1916 9.24959 5.56451C8.37867 5.93742 7.59268 6.48341 6.93922 7.16934C6.76905 7.35635 6.60261 7.54336 6.4474 7.74347L11.9998 13.294L17.5522 7.73786C17.4056 7.53672 17.2443 7.3467 17.0697 7.16934ZM12.0054 11.9979L7.70411 7.69671C8.26648 7.12835 8.93655 6.67783 9.67507 6.37149C10.4136 6.06515 11.2059 5.90916 12.0054 5.91262C12.805 5.90822 13.5976 6.06379 14.3363 6.37017C15.0749 6.67656 15.7448 7.12759 16.3066 7.69671L12.0054 11.9979Z" fill="#F1EBDD"/>
</g>
</svg>
