<svg width="24" height="24" viewBox="0 0 24 24" fill="none" xmlns="http://www.w3.org/2000/svg">
<g clip-path="url(#clip0_610_114)">
<path d="M18 0.14209H6C2.68629 0.14209 0 2.8117 0 6.10482V18.0303C0 21.3234 2.68629 23.993 6 23.993H18C21.3137 23.993 24 21.3234 24 18.0303V6.10482C24 2.8117 21.3137 0.14209 18 0.14209Z" fill="#00DE73"/>
<path d="M18 0.14209H6C2.68629 0.14209 0 2.8117 0 6.10482V18.0303C0 21.3234 2.68629 23.993 6 23.993H18C21.3137 23.993 24 21.3234 24 18.0303V6.10482C24 2.8117 21.3137 0.14209 18 0.14209Z" fill="url(#paint0_linear_610_114)" fill-opacity="0.2"/>
<g filter="url(#filter0_d_610_114)">
<path d="M5.71428 14.3653L9.41164 13.3811L9.41374 13.379L11.5515 9.69843L10.5618 6.02203L8.82495 6.48368L9.81473 10.1601C9.89913 10.4748 9.85692 10.8043 9.69231 11.0855C9.52772 11.3688 9.26391 11.5702 8.94737 11.6541L5.25 12.6383L5.71428 14.3653Z" fill="#F7F9F3"/>
<path d="M5.71428 14.3653L9.41164 13.3811L9.41374 13.379L11.5515 9.69843L10.5618 6.02203L8.82495 6.48368L9.81473 10.1601C9.89913 10.4748 9.85692 10.8043 9.69231 11.0855C9.52772 11.3688 9.26391 11.5702 8.94737 11.6541L5.25 12.6383L5.71428 14.3653Z" fill="url(#paint1_linear_610_114)" fill-opacity="0.2"/>
<path d="M14.5883 13.3811L18.2857 14.3653L18.75 12.6383L15.0526 11.6541C14.7361 11.5702 14.4723 11.3688 14.3076 11.0855C14.143 10.8043 14.1008 10.4748 14.1852 10.1601L15.175 6.48368L13.4382 6.02203L12.4484 9.69843L14.5862 13.379L14.5883 13.3811Z" fill="#F7F9F3"/>
<path d="M14.5883 13.3811L18.2857 14.3653L18.75 12.6383L15.0526 11.6541C14.7361 11.5702 14.4723 11.3688 14.3076 11.0855C14.143 10.8043 14.1008 10.4748 14.1852 10.1601L15.175 6.48368L13.4382 6.02203L12.4484 9.69843L14.5862 13.379L14.5883 13.3811Z" fill="url(#paint2_linear_610_114)" fill-opacity="0.2"/>
<path d="M14.1368 14.1575L16.8444 16.8498L15.5739 18.113L12.8663 15.4208C12.6342 15.1899 12.3282 15.0641 11.999 15.0641C11.6697 15.0641 11.3637 15.1899 11.1316 15.4208L8.424 18.113L7.15356 16.8498L9.86115 14.1575H14.1368Z" fill="#F7F9F3"/>
<path d="M14.1368 14.1575L16.8444 16.8498L15.5739 18.113L12.8663 15.4208C12.6342 15.1899 12.3282 15.0641 11.999 15.0641C11.6697 15.0641 11.3637 15.1899 11.1316 15.4208L8.424 18.113L7.15356 16.8498L9.86115 14.1575H14.1368Z" fill="url(#paint3_linear_610_114)" fill-opacity="0.2"/>
</g>
</g>
<defs>
<filter id="filter0_d_610_114" x="2.25" y="4.52203" width="19.5" height="18.0909" filterUnits="userSpaceOnUse" color-interpolation-filters="sRGB">
<feFlood flood-opacity="0" result="BackgroundImageFix"/>
<feColorMatrix in="SourceAlpha" type="matrix" values="0 0 0 0 0 0 0 0 0 0 0 0 0 0 0 0 0 0 127 0" result="hardAlpha"/>
<feOffset dy="1.5"/>
<feGaussianBlur stdDeviation="1.5"/>
<feComposite in2="hardAlpha" operator="out"/>
<feColorMatrix type="matrix" values="0 0 0 0 0 0 0 0 0 0 0 0 0 0 0 0 0 0 0.35 0"/>
<feBlend mode="normal" in2="BackgroundImageFix" result="effect1_dropShadow_610_114"/>
<feBlend mode="normal" in="SourceGraphic" in2="effect1_dropShadow_610_114" result="shape"/>
</filter>
<linearGradient id="paint0_linear_610_114" x1="12" y1="0.14209" x2="12" y2="13.1856" gradientUnits="userSpaceOnUse">
<stop stop-color="#80FFC2"/>
<stop offset="1" stop-color="#80FFC2" stop-opacity="0"/>
</linearGradient>
<linearGradient id="paint1_linear_610_114" x1="12" y1="6.02203" x2="12" y2="18.113" gradientUnits="userSpaceOnUse">
<stop stop-opacity="0"/>
<stop offset="1" stop-opacity="0.75"/>
</linearGradient>
<linearGradient id="paint2_linear_610_114" x1="12" y1="6.02203" x2="12" y2="18.113" gradientUnits="userSpaceOnUse">
<stop stop-opacity="0"/>
<stop offset="1" stop-opacity="0.75"/>
</linearGradient>
<linearGradient id="paint3_linear_610_114" x1="12" y1="6.02204" x2="12" y2="18.113" gradientUnits="userSpaceOnUse">
<stop stop-opacity="0"/>
<stop offset="1" stop-opacity="0.75"/>
</linearGradient>
<clipPath id="clip0_610_114">
<rect width="24" height="24" rx="9" fill="white"/>
</clipPath>
</defs>
</svg>
