<svg width="24" height="24" viewBox="0 0 24 24" fill="none" xmlns="http://www.w3.org/2000/svg">
<path d="M0 8C0 3.58172 3.58172 0 8 0H16C20.4183 0 24 3.58172 24 8V16C24 20.4183 20.4183 24 16 24H8C3.58172 24 0 20.4183 0 16V8Z" fill="#010000"/>
<path d="M12 6.45206L7.28667 9.22602V14.774L12 17.548L16.7133 14.774V9.22602L12 6.45206ZM12.1979 5.05407C12.0754 4.98198 11.9246 4.98198 11.802 5.05407L6.19794 8.35228C6.07544 8.42438 6 8.55763 6 8.70178V15.2982C6 15.4424 6.07544 15.5756 6.19794 15.6477L11.802 18.9459C11.9246 19.018 12.0754 19.018 12.1979 18.9459L17.802 15.6477C17.9246 15.5756 18 15.4424 18 15.2982V8.70178C18 8.55763 17.9246 8.42438 17.802 8.35228L12.1979 5.05407Z" fill="#FF9211"/>
</svg>
