<svg width="24" height="24" viewBox="0 0 24 24" fill="none" xmlns="http://www.w3.org/2000/svg">
<path d="M0 8C0 3.58172 3.58172 0 8 0H16C20.4183 0 24 3.58172 24 8V16C24 20.4183 20.4183 24 16 24H8C3.58172 24 0 20.4183 0 16V8Z" fill="#FF0420"/>
<path d="M12 5C8.15 5 5 8.15 5 12C5 15.85 8.15 19 12 19C15.85 19 19 15.85 19 12C19 8.15 15.85 5 12 5ZM12 15.57V18.195C9.305 18.195 7.135 16.025 7.135 13.33C7.135 10.635 9.305 8.465 12 8.465V5.84C14.695 5.84 16.865 8.01 16.865 10.705C16.865 13.4 14.695 15.57 12 15.57Z" fill="white"/>
<path d="M12.0219 9H11.9781C11.3212 10.3043 10.3139 11.3044 9 11.9565C10.3139 12.6522 11.3212 13.6522 11.9781 15H12.0219C12.6788 13.6957 13.6861 12.6956 15 12.0435C13.6861 11.3478 12.6788 10.3478 12.0219 9Z" fill="white"/>
</svg>
