<svg width="24" height="24" viewBox="0 0 24 24" fill="none" xmlns="http://www.w3.org/2000/svg">
<g clip-path="url(#clip0_372_7538)">
<path d="M0 8C0 3.58172 3.58172 0 8 0H16C20.4183 0 24 3.58172 24 8V16C24 20.4183 20.4183 24 16 24H8C3.58172 24 0 20.4183 0 16V8Z" fill="#627EEA"/>
<mask id="mask0_372_7538" style="mask-type:luminance" maskUnits="userSpaceOnUse" x="0" y="0" width="24" height="24">
<path d="M21 0H3C1.34315 0 0 1.34315 0 3V21C0 22.6569 1.34315 24 3 24H21C22.6569 24 24 22.6569 24 21V3C24 1.34315 22.6569 0 21 0Z" fill="white"/>
</mask>
<g mask="url(#mask0_372_7538)">
<path d="M12.3735 3V9.65242L17.9962 12.1649L12.3735 3Z" fill="white" fill-opacity="0.602"/>
<path d="M12.3736 3L6.75 12.1649L12.3736 9.65242V3Z" fill="white"/>
<path d="M12.3735 16.4754V20.9958L18 13.2114L12.3735 16.4754Z" fill="white" fill-opacity="0.602"/>
<path d="M12.3736 20.9958V16.4747L6.75 13.2114L12.3736 20.9958Z" fill="white"/>
<path d="M12.3735 15.4291L17.9962 12.1643L12.3735 9.65332V15.4291Z" fill="white" fill-opacity="0.2"/>
<path d="M6.75 12.1643L12.3736 15.4291V9.65332L6.75 12.1643Z" fill="white" fill-opacity="0.602"/>
</g>
</g>
<defs>
<clipPath id="clip0_372_7538">
<path d="M0 8C0 3.58172 3.58172 0 8 0H16C20.4183 0 24 3.58172 24 8V16C24 20.4183 20.4183 24 16 24H8C3.58172 24 0 20.4183 0 16V8Z" fill="white"/>
</clipPath>
</defs>
</svg>
