<svg width="24" height="24" viewBox="0 0 24 24" fill="none" xmlns="http://www.w3.org/2000/svg">
<path d="M0 8C0 3.58172 3.58172 0 8 0H16C20.4183 0 24 3.58172 24 8V16C24 20.4183 20.4183 24 16 24H8C3.58172 24 0 20.4183 0 16V8Z" fill="#313C41"/>
<path d="M11.9998 4.85481C12.474 4.85481 12.9001 5.11822 13.1121 5.54217L16.6091 12.5362C16.8032 12.9244 16.7828 13.3766 16.5549 13.746C16.3266 14.1154 15.9312 14.3358 15.4972 14.3358H8.50314C8.06915 14.3358 7.67373 14.1154 7.44544 13.746C7.21716 13.3766 7.19678 12.9244 7.39088 12.5362L10.8879 5.54217C11.0999 5.11822 11.526 4.85481 12.0002 4.85481M12.0002 4C11.2052 4 10.479 4.44904 10.1234 5.15992L6.62638 12.1539C6.3012 12.8043 6.33601 13.577 6.71826 14.1953C7.10051 14.814 7.77595 15.1906 8.50314 15.1906H15.4972C16.2244 15.1906 16.8998 14.814 17.2821 14.1953C17.6643 13.5767 17.6991 12.8043 17.3739 12.1539L13.8769 5.15992C13.5216 4.44904 12.7951 4 12.0002 4Z" fill="#5DEB5A"/>
<path d="M9.23243 17.2828C9.24842 17.2828 9.26159 17.2959 9.26159 17.3119V18.5434C9.26159 19.1272 8.89627 19.4145 8.4143 19.4145C7.93233 19.4145 7.56702 19.1269 7.56702 18.5434V17.3119C7.56702 17.2959 7.58019 17.2828 7.59618 17.2828H7.88248C7.89847 17.2828 7.91164 17.2959 7.91164 17.3119V18.5223C7.91164 18.9297 8.12424 19.0912 8.41462 19.0912C8.70499 19.0912 8.91759 18.9294 8.91759 18.5223V17.3119C8.91759 17.2959 8.93076 17.2828 8.94676 17.2828H9.23305H9.23243Z" fill="white"/>
<path d="M14.249 18.3308C14.2459 18.9476 13.7758 19.4145 13.1622 19.4145C12.5485 19.4145 12.0753 18.9476 12.0753 18.3308C12.0753 17.714 12.5485 17.2471 13.1622 17.2471C13.7758 17.2471 14.2459 17.7143 14.249 18.3308ZM12.4168 18.3308C12.4168 18.7679 12.7373 19.0912 13.1622 19.0912C13.5871 19.0912 13.9047 18.7679 13.9047 18.3308C13.9047 17.8937 13.5843 17.5704 13.1622 17.5704C12.7401 17.5704 12.4168 17.8937 12.4168 18.3308Z" fill="white"/>
<path d="M17.3004 19.3784H17.0041C16.9837 19.3784 16.9696 19.358 16.9772 19.3389L17.7614 17.3132C17.768 17.2963 17.784 17.2853 17.8022 17.2853H18.1728C18.1907 17.2853 18.207 17.2963 18.2136 17.3132L18.9978 19.3389C19.0054 19.358 18.9913 19.3784 18.9709 19.3784H18.6745C18.6623 19.3784 18.6517 19.3709 18.6473 19.3596L18.0148 17.692C18.0054 17.6669 17.9699 17.6669 17.9605 17.692L17.328 19.3596C17.3237 19.3709 17.313 19.3784 17.3008 19.3784H17.3004Z" fill="white"/>
<path d="M5.32535 19.3784H5.02902C5.00864 19.3784 4.99453 19.358 5.00205 19.3389L5.78631 17.3132C5.79289 17.2963 5.80889 17.2853 5.82707 17.2853H6.19772C6.2156 17.2853 6.2319 17.2963 6.23849 17.3132L7.02275 19.3389C7.03027 19.358 7.01616 19.3784 6.99578 19.3784H6.69945C6.68722 19.3784 6.67656 19.3709 6.67217 19.3596L6.03968 17.692C6.03027 17.6669 5.99484 17.6669 5.98543 17.692L5.35295 19.3596C5.34856 19.3709 5.33789 19.3784 5.32566 19.3784H5.32535Z" fill="white"/>
<path d="M16.4673 19.3317L15.879 18.5804C16.2108 18.5177 16.4052 18.2935 16.4052 17.9495C16.4052 17.5547 16.1481 17.2856 15.6937 17.2856H14.8731C14.8489 17.2856 14.8295 17.3051 14.8295 17.3292C14.8295 17.4835 14.9546 17.6086 15.1089 17.6086H15.6579C15.9329 17.6086 16.0646 17.7491 16.0646 17.9526C16.0646 18.1561 15.9361 18.2994 15.6579 18.2994H14.8734C14.8492 18.2994 14.8298 18.3189 14.8298 18.343V19.3496C14.8298 19.3656 14.843 19.3788 14.8589 19.3788H15.1387C15.1546 19.3788 15.1678 19.3656 15.1678 19.3496V18.5983H15.4908L16.0016 19.2646C16.0565 19.3364 16.1418 19.3785 16.2324 19.3785H16.445C16.4692 19.3785 16.483 19.3506 16.4679 19.3314L16.4673 19.3317Z" fill="white"/>
<path d="M11.6039 19.3317L11.0156 18.5804C11.3474 18.5177 11.5418 18.2935 11.5418 17.9495C11.5418 17.5547 11.2847 17.2856 10.8303 17.2856H10.0097C9.98551 17.2856 9.96606 17.3051 9.96606 17.3292C9.96606 17.4835 10.0912 17.6086 10.2455 17.6086H10.7945C11.0695 17.6086 11.2012 17.7491 11.2012 17.9526C11.2012 18.1561 11.0727 18.2994 10.7945 18.2994H10.01C9.98582 18.2994 9.96638 18.3189 9.96638 18.343V19.3496C9.96638 19.3656 9.97955 19.3788 9.99554 19.3788H10.2753C10.2912 19.3788 10.3044 19.3656 10.3044 19.3496V18.5983H10.6274L11.1382 19.2646C11.1931 19.3364 11.2784 19.3785 11.369 19.3785H11.5816C11.6058 19.3785 11.6196 19.3506 11.6045 19.3314L11.6039 19.3317Z" fill="white"/>
</svg>
