<svg width="24" height="24" viewBox="0 0 24 24" fill="none" xmlns="http://www.w3.org/2000/svg">
<path d="M0 8C0 3.58172 3.58172 0 8 0H16C20.4183 0 24 3.58172 24 8V16C24 20.4183 20.4183 24 16 24H8C3.58172 24 0 20.4183 0 16V8Z" fill="#001B2A"/>
<path d="M11.9822 19C14.0617 19 15.93 18.0978 17.215 16.6644C16.6173 16.1462 15.7164 16.1148 15.0799 16.627L14.9584 16.7248C13.7932 17.6627 12.0953 17.5242 11.0982 16.4099C10.5545 15.8022 9.62327 15.7402 9.00324 16.2703L7.60148 17.469C8.80211 18.4271 10.3251 19 11.9822 19ZM14.2576 15.6104C15.3674 14.717 16.9274 14.7491 17.9949 15.6119C18.6329 14.5574 19 13.3215 19 12C19 10.5316 18.5468 9.16885 17.7722 8.04331C17.2729 7.93725 16.7316 8.06113 16.3207 8.42429L16.2038 8.52765C15.0832 9.51815 13.3807 9.45795 12.3333 8.39082C11.7619 7.8088 10.8288 7.78969 10.234 8.34783L8.60278 9.87859L7.70539 8.92717L9.33668 7.3964C10.4508 6.35088 12.1988 6.38668 13.269 7.47694C13.8282 8.04663 14.7371 8.07875 15.3353 7.54998L15.4522 7.44662C15.8153 7.12565 16.2355 6.90928 16.6753 6.79548C15.432 5.67929 13.7866 5 11.9822 5C8.41963 5 5.47711 7.6478 5.02465 11.078C6.10673 10.5601 7.44147 10.7594 8.32376 11.6606C8.88074 12.2295 9.77756 12.2896 10.4058 11.8L11.3179 11.0893C12.4641 10.196 14.0845 10.2393 15.1813 11.1924L16.9569 12.7355L16.0966 13.7204L14.321 12.1773C13.6973 11.6354 12.7759 11.6107 12.1241 12.1187L11.2121 12.8294C10.0578 13.7289 8.4101 13.6185 7.38678 12.5732C6.79171 11.9655 5.81847 11.9442 5.19737 12.5256L5 12.7103C5.14771 14.1723 5.74646 15.5016 6.65536 16.5575L8.15087 15.2786C9.31223 14.2855 11.0567 14.4018 12.0753 15.5401C12.6075 16.135 13.5139 16.2089 14.136 15.7083L14.2576 15.6104Z" fill="url(#paint0_linear_372_7363)"/>
<defs>
<linearGradient id="paint0_linear_372_7363" x1="11.9883" y1="18.941" x2="11.9883" y2="5" gradientUnits="userSpaceOnUse">
<stop stop-color="#B52A2A"/>
<stop offset="1" stop-color="#780000"/>
</linearGradient>
</defs>
</svg>
