<svg width="24" height="24" viewBox="0 0 24 24" fill="none" xmlns="http://www.w3.org/2000/svg">
<path d="M0 8C0 3.58172 3.58172 0 8 0H16C20.4183 0 24 3.58172 24 8V16C24 20.4183 20.4183 24 16 24H8C3.58172 24 0 20.4183 0 16V8Z" fill="#2354E6"/>
<path d="M6.09645 6.00203L9.00905 6.68232C9.04491 6.68922 9.06966 6.72152 9.06966 6.75839V17.3014C9.06966 17.3383 9.04293 17.3728 9.00707 17.3798L6.09406 17.998C6.04504 18.0095 6 17.97 6 17.9196V6.08043C6 6.02969 6.04703 5.9905 6.09645 6.00203ZM16.904 6.00203L13.9909 6.68232C13.9551 6.68922 13.9303 6.72152 13.9303 6.75839V17.3014C13.9303 17.3383 13.9575 17.3728 13.9933 17.3798L16.906 17.998C16.9553 18.0095 17 17.97 17 17.9196V6.08043C17 6.02969 16.953 5.9905 16.904 6.00203ZM13.0348 10.4504V13.4735V13.5427H12.9678H10.0325H9.96517V13.4735V10.4504V10.3811H10.0325H12.9678H13.0348V10.4504Z" fill="white"/>
</svg>
