<svg width="24" height="24" viewBox="0 0 24 24" fill="none" xmlns="http://www.w3.org/2000/svg">
<path d="M0 8C0 3.58172 3.58172 0 8 0H16C20.4183 0 24 3.58172 24 8V16C24 20.4183 20.4183 24 16 24H8C3.58172 24 0 20.4183 0 16V8Z" fill="#161B27"/>
<path d="M15.1323 6.23186C14.7721 6.59208 14.4421 6.98249 14.1488 7.3988L14.056 7.3686C13.5211 7.19388 12.9668 7.08603 12.4081 7.04936C12.2398 7.03642 11.6121 7.03642 11.4072 7.04936C10.7882 7.09035 10.3136 7.1831 9.77439 7.37076C9.75281 7.37938 9.73337 7.38586 9.71399 7.39232C9.40984 6.97818 9.0712 6.58992 8.698 6.23402C10.4883 5.31729 12.5828 5.20728 14.4572 5.92988C14.6578 6.00537 14.8541 6.09381 15.0461 6.18872L15.1323 6.23186Z" fill="#F00500"/>
<path d="M18.4711 14.4137C18.1993 15.1881 17.7917 15.9063 17.2632 16.5319C16.9763 16.8684 16.6593 17.1768 16.3184 17.4572C15.5204 18.1 14.5885 18.5594 13.5942 18.8011C12.4941 19.0663 11.3466 19.0663 10.2465 18.8011C9.24996 18.5594 8.32028 18.1 7.52219 17.4572C7.18138 17.1768 6.8643 16.8684 6.57742 16.5319C5.05673 14.7351 4.59513 12.2675 5.3695 10.0436C5.51618 9.6316 5.69952 9.23474 5.91954 8.85727C6.02091 8.68466 6.14602 8.49056 6.20642 8.41075C6.41349 9.30161 6.66802 10.0846 6.76292 10.3672C6.75645 10.3823 6.74783 10.3995 6.73919 10.4146C6.23662 11.4327 5.96483 12.4141 5.90013 13.4582C5.90013 13.4711 5.89797 13.4862 5.89797 13.4991C5.88071 13.8119 5.88934 13.9607 5.9411 14.157C6.10288 14.7718 6.60115 15.4491 7.38198 16.1134C8.66111 17.2005 10.3953 17.9857 11.7089 18.0763C13.0787 18.1691 15.0997 17.3688 16.4457 16.1997C16.6571 16.012 16.8555 15.8136 17.041 15.6022C17.1748 15.4469 17.3732 15.1794 17.3581 15.1794C17.3538 15.1794 17.3581 15.1751 17.3667 15.1708C17.3732 15.1665 17.3797 15.16 17.3754 15.1557C17.3732 15.1536 17.3775 15.147 17.384 15.1449C17.3905 15.1428 17.3948 15.1385 17.3926 15.1341C17.3905 15.1298 17.3926 15.1255 17.4012 15.1233C17.4078 15.1212 17.4099 15.1147 17.4078 15.1104C17.4056 15.1061 17.4078 15.1018 17.412 15.1018C17.4164 15.1018 17.4207 15.0953 17.4207 15.091C17.4207 15.0866 17.425 15.0802 17.4293 15.0802C17.4336 15.0802 17.4379 15.0759 17.4379 15.0716C17.4444 15.0543 17.4552 15.037 17.466 15.022C17.4983 14.9724 17.6277 14.7415 17.645 14.7027C17.768 14.4245 17.8456 14.1764 17.8823 13.9283C17.8995 13.8097 17.9103 13.5919 17.9017 13.5401C17.8995 13.5315 17.8995 13.5164 17.8974 13.4927C17.8931 13.4495 17.8909 13.3848 17.8866 13.3201C17.8823 13.223 17.8737 13.0871 17.8671 13.0203C17.7744 12.041 17.5242 11.2408 17.0497 10.3931C17.0302 10.3607 17.013 10.3283 17.0022 10.3024C16.9979 10.296 16.9957 10.2895 16.9936 10.2852C17.0605 10.0846 17.3344 9.24553 17.5523 8.28564L17.5565 8.28996L17.5889 8.3331C17.645 8.4086 17.7938 8.63291 17.8607 8.74079C18.1648 9.23688 18.4021 9.76965 18.5703 10.3262C18.9608 11.6657 18.9284 13.0936 18.4711 14.4137Z" fill="#F00500"/>
<path d="M15.6713 11.8359C15.6648 11.8704 15.5634 11.974 15.4621 12.0495C15.1644 12.2673 14.6316 12.4701 14.0902 12.5671C13.7818 12.6232 13.4733 12.6319 13.3805 12.5866C13.3201 12.5563 13.3115 12.5326 13.3331 12.455C13.3784 12.2932 13.5251 12.1163 13.7537 11.9502C13.8702 11.8661 14.3426 11.5792 14.5626 11.4584C14.925 11.26 15.2183 11.1414 15.4167 11.1133C15.4793 11.1047 15.5548 11.1025 15.5786 11.1133C15.6174 11.1284 15.6605 11.2427 15.6778 11.3808C15.6864 11.4541 15.6821 11.7777 15.6713 11.8359Z" fill="black"/>
<path d="M10.5894 12.5499C10.5765 12.5758 10.5118 12.6039 10.4384 12.6146C10.3651 12.6254 10.1408 12.619 10.0135 12.6039C9.55623 12.5435 9.07094 12.4033 8.71718 12.2307C8.51873 12.1336 8.37636 12.0366 8.27066 11.9309L8.21027 11.8683L8.2038 11.7864C8.19301 11.644 8.19517 11.4196 8.21242 11.3399C8.22321 11.273 8.24694 11.2083 8.27929 11.1501C8.29655 11.1285 8.29655 11.1285 8.3742 11.1285C8.46911 11.1285 8.5489 11.1436 8.67836 11.1846C8.94368 11.2665 9.33839 11.465 9.81942 11.754C10.2163 11.9912 10.3651 12.1078 10.4795 12.2673C10.5571 12.3666 10.6089 12.5068 10.5894 12.5499Z" fill="black"/>
<path d="M13.6433 15.5517C13.6433 15.5582 13.6175 15.6617 13.5851 15.7847C13.5528 15.9076 13.5268 16.0068 13.5268 16.0112C13.5031 16.0133 13.4816 16.0154 13.4579 16.0133H13.3889L13.2939 16.2376C13.2421 16.3606 13.1947 16.4749 13.1882 16.4921L13.1753 16.5223L13.13 16.449L13.0847 16.3756V15.7782L13.0675 15.7825C13.0308 15.7911 12.7698 15.8256 12.6554 15.8364C12.1831 15.8839 11.7085 15.8731 11.2383 15.8062C11.1628 15.7954 11.0981 15.7868 11.0959 15.789C11.0937 15.7911 11.0959 15.9292 11.1003 16.0996L11.1067 16.4059L11.07 16.4619C11.0507 16.4921 11.0312 16.518 11.0312 16.5202C11.0247 16.5267 11.0032 16.4921 10.9536 16.3929C10.8996 16.2894 10.8608 16.1794 10.8328 16.065L10.8177 16.0025L10.7508 16.0068L10.684 16.0133L10.6667 15.9335C10.6581 15.8903 10.6473 15.8235 10.643 15.7868L10.6365 15.7178L10.5804 15.6682C10.5481 15.6401 10.5157 15.6121 10.5092 15.6078C10.4984 15.5991 10.4941 15.5841 10.4941 15.5711V15.5452L10.7638 15.5474L11.0334 15.5495L11.042 15.5775L11.0507 15.6056L11.1434 15.6099C11.1952 15.6121 11.3591 15.6164 11.5058 15.6207L11.7754 15.6272L11.8444 15.5193L11.9156 15.4115H12.0062L12.004 15.1872L12.0019 14.9628L11.8832 14.9111C11.5014 14.7428 11.2771 14.5508 11.193 14.3179C11.1757 14.2705 11.1757 14.2531 11.1714 14.0375C11.1693 13.8239 11.1693 13.8045 11.1844 13.7571C11.2146 13.6492 11.2987 13.5651 11.4065 13.537C11.4432 13.5262 11.5403 13.5262 12.0493 13.5262L12.649 13.5284L12.7158 13.5608C12.7956 13.5996 12.8323 13.6277 12.8776 13.688C12.9294 13.7571 12.9445 13.811 12.9445 13.9425C12.9445 14.1302 12.9315 14.292 12.9122 14.3567C12.8841 14.4451 12.841 14.5293 12.787 14.6048C12.6791 14.7428 12.4829 14.8809 12.3039 14.9434L12.2521 14.9628L12.2543 15.1893L12.2564 15.4158L12.3039 15.4201L12.3513 15.4244L12.416 15.5215L12.4786 15.6186H12.7676C12.9272 15.6186 13.0675 15.6207 13.0804 15.6229C13.102 15.6272 13.1063 15.625 13.1278 15.5883L13.1537 15.5495H13.4018C13.5873 15.5409 13.6433 15.5452 13.6433 15.5517Z" fill="black"/>
<path d="M12.5047 16.1716C12.4638 16.1953 12.4357 16.2061 12.4293 16.2018C12.4228 16.1996 12.3926 16.1738 12.3602 16.15L12.302 16.1026L12.2416 16.1672C12.11 16.3096 12.1057 16.3161 12.0669 16.3183C12.0065 16.3247 11.9935 16.3139 11.9202 16.2039C11.8814 16.1478 11.8512 16.1004 11.8512 16.1004C11.8512 16.1004 11.8232 16.0961 11.7908 16.0939L11.7304 16.0874L11.7024 16.1457L11.6743 16.2039L11.6247 16.1888C11.5859 16.1759 11.5471 16.1608 11.5104 16.1435L11.4456 16.1112V15.9882L12.0194 15.9904L12.5932 15.9925L12.5954 16.0508C12.5975 16.1198 12.5997 16.1176 12.5047 16.1716Z" fill="black"/>
<path d="M17.8976 13.5408C17.8955 13.5322 17.8955 13.5171 17.8934 13.4934C17.3756 13.4373 15.8981 13.4028 14.5262 14.5352C14.5262 14.5352 14.084 12.5076 12.0134 12.5076C9.94261 12.5076 9.17475 14.5352 9.17475 14.5352C8.01426 13.2863 6.46122 13.3769 5.9004 13.4589C5.9004 13.4718 5.89824 13.4869 5.89824 13.4999C5.88099 13.8126 5.88961 13.9614 5.94138 14.1578C6.10316 14.7725 6.60143 15.4498 7.38226 16.1142C8.66136 17.2013 10.3956 17.9864 11.7092 18.077C13.0789 18.1698 15.1 17.3695 16.446 16.2004C16.6574 16.0127 16.8558 15.8143 17.0413 15.6029C17.1751 15.4476 17.3735 15.1801 17.3584 15.1801C17.3541 15.1801 17.3584 15.1758 17.367 15.1716C17.3735 15.1672 17.38 15.1608 17.3756 15.1564C17.3735 15.1543 17.3778 15.1478 17.3843 15.1456C17.3908 15.1435 17.3951 15.1392 17.3929 15.1349C17.3908 15.1305 17.3929 15.1262 17.4015 15.1241C17.408 15.1219 17.4101 15.1155 17.408 15.1111C17.4059 15.1068 17.408 15.1025 17.4123 15.1025C17.4167 15.1025 17.4209 15.096 17.4209 15.0917C17.4209 15.0874 17.4253 15.0809 17.4296 15.0809C17.4339 15.0809 17.4382 15.0766 17.4382 15.0723C17.4447 15.0551 17.4555 15.0378 17.4663 15.0227C17.4986 14.9731 17.628 14.7423 17.6453 14.7034C17.7682 14.4252 17.8459 14.1771 17.8826 13.9291C17.8955 13.8105 17.9063 13.5926 17.8976 13.5408ZM12.5052 16.1724C12.4642 16.1961 12.4361 16.2069 12.4297 16.2026C12.4232 16.2004 12.393 16.1746 12.3606 16.1508L12.3024 16.1034L12.242 16.168C12.1104 16.3104 12.1061 16.3169 12.0673 16.3191C12.0069 16.3255 11.9939 16.3147 11.9206 16.2047C11.8818 16.1487 11.8516 16.1012 11.8516 16.1012C11.8516 16.1012 11.8236 16.0969 11.7912 16.0947L11.7308 16.0883L11.7028 16.1465L11.6747 16.2047L11.6251 16.1896C11.5863 16.1767 11.5474 16.1616 11.5108 16.1443L11.446 16.112V15.989L12.0198 15.9912L12.5936 15.9934L12.5957 16.0516C12.5979 16.1206 12.6001 16.1184 12.5052 16.1724ZM13.5836 15.7841C13.5513 15.907 13.5254 16.0063 13.5254 16.0106C13.5017 16.0127 13.4801 16.0149 13.4564 16.0127H13.3874L13.2946 16.2392C13.2429 16.3622 13.1954 16.4765 13.1889 16.4938L13.176 16.524L13.1307 16.4506L13.0854 16.3773V15.7798L13.0681 15.7841C13.0314 15.7928 12.7704 15.8273 12.6561 15.8381C12.1838 15.8855 11.7092 15.8747 11.239 15.8078C11.1635 15.7971 11.0988 15.7884 11.0966 15.7906C11.0945 15.7928 11.0966 15.9308 11.1009 16.1012L11.1074 16.4075L11.0708 16.4636C11.0513 16.4938 11.0319 16.5197 11.0319 16.5218C11.0255 16.5283 11.0039 16.4938 10.9543 16.3945C10.9003 16.291 10.8615 16.181 10.8335 16.0667L10.8184 16.0041L10.7515 16.0085L10.6846 16.0149L10.6674 15.9351C10.6587 15.892 10.6479 15.8251 10.6437 15.7884L10.6372 15.7194L10.5811 15.6698C10.5488 15.6417 10.5164 15.6137 10.5099 15.6094C10.4992 15.6008 10.4948 15.5857 10.4948 15.5727V15.5468L10.7644 15.549L11.0341 15.5512L11.0427 15.5792L11.0513 15.6072L11.1441 15.6116C11.1958 15.6137 11.3598 15.618 11.5064 15.6223L11.7761 15.6288L11.8451 15.521L11.9163 15.4131H12.0069L12.0047 15.1888L12.0026 14.9644L11.8839 14.9127C11.5022 14.7445 11.2778 14.5525 11.1937 14.3195C11.1764 14.272 11.1764 14.2548 11.1721 14.0391C11.17 13.8256 11.17 13.8061 11.185 13.7587C11.2153 13.6508 11.2994 13.5667 11.4072 13.5387C11.4439 13.5279 11.541 13.5279 12.05 13.5279L12.6497 13.5301L12.7165 13.5624C12.7963 13.6012 12.833 13.6292 12.8783 13.6897C12.9301 13.7587 12.9452 13.8126 12.9452 13.9442C12.9452 14.1319 12.9323 14.2936 12.9128 14.3583C12.8848 14.4468 12.8416 14.5309 12.7877 14.6064C12.6799 14.7445 12.4836 14.8825 12.3045 14.9451L12.2528 14.9644L12.2549 15.1909L12.2571 15.4174L12.3045 15.4218L12.352 15.4261L12.4167 15.5231L12.4793 15.6202H12.7683C12.9279 15.6202 13.0681 15.6223 13.081 15.6245C13.1026 15.6288 13.1069 15.6267 13.1285 15.59L13.1544 15.5512H13.4024C13.5944 15.5512 13.6505 15.5533 13.6505 15.5598C13.644 15.5576 13.616 15.6633 13.5836 15.7841Z" fill="white"/>
<path d="M17.8801 13.3204C17.8758 13.2233 17.8672 13.0874 17.8607 13.0205C17.7679 12.0412 17.5177 11.241 17.0432 10.3933C17.0238 10.3609 17.0065 10.3286 16.9957 10.3027C16.9914 10.2963 16.9893 10.2898 16.9871 10.2855C17.0539 10.0849 17.3279 9.24578 17.5458 8.28592C17.8412 6.9831 18.0289 5.46025 17.4552 5.00296C17.4552 5.00296 16.463 4.92963 15.1342 6.23246C14.774 6.59268 14.444 6.9831 14.1506 7.3994L14.0579 7.3692C13.5229 7.19448 12.9686 7.08663 12.4099 7.04996C12.2417 7.03702 11.614 7.03702 11.4091 7.04996C10.79 7.09094 10.3155 7.18369 9.77621 7.37135C9.75464 7.37999 9.73525 7.38645 9.71581 7.39293C9.41173 6.97878 9.07302 6.59052 8.69988 6.23461C7.31725 4.92531 6.28836 5.00081 6.28836 5.00081C5.68008 5.4732 5.88716 7.06506 6.20208 8.41103C6.40915 9.30186 6.66368 10.0849 6.75859 10.3675C6.75211 10.3825 6.74349 10.3998 6.73486 10.4149C6.23228 11.433 5.96049 12.4144 5.89578 13.4584C6.45876 13.3764 8.00965 13.2837 9.17225 14.5347C9.17225 14.5347 9.94017 12.5072 12.0109 12.5072C14.0816 12.5072 14.5238 14.5347 14.5238 14.5347C15.8956 13.4023 17.3732 13.439 17.8909 13.4929C17.8887 13.4498 17.8844 13.3851 17.8801 13.3204ZM7.16626 9.55425C7.16626 9.55425 6.35954 7.53745 6.56661 6.38561C6.60113 6.19147 6.66584 6.02107 6.76722 5.89165C6.76722 5.89165 7.68178 5.98225 9.15719 7.62157C9.15719 7.62157 8.87676 7.75746 8.50143 8.0465C8.50143 8.0465 8.49929 8.04865 8.49716 8.04865C8.08946 8.36142 7.56746 8.85752 7.16626 9.55425ZM10.5894 12.5503C10.5765 12.5762 10.5118 12.6042 10.4384 12.615C10.3651 12.6258 10.1408 12.6194 10.0135 12.6042C9.55624 12.5438 9.07089 12.4036 8.71713 12.2311C8.51867 12.134 8.37633 12.037 8.27065 11.9313L8.21025 11.8687L8.20378 11.7868C8.19299 11.6444 8.19515 11.42 8.21241 11.3402C8.22319 11.2734 8.24692 11.2086 8.27927 11.1504C8.29653 11.1289 8.29653 11.1289 8.37418 11.1289C8.46906 11.1289 8.5489 11.144 8.6783 11.1849C8.94362 11.2669 9.33834 11.4654 9.81937 11.7544C10.2163 11.9917 10.3651 12.1082 10.4794 12.2677C10.5571 12.367 10.6089 12.5072 10.5894 12.5503ZM15.6713 11.8364C15.6649 11.8709 15.5634 11.9744 15.4621 12.0499C15.1644 12.2677 14.6316 12.4705 14.0903 12.5675C13.7818 12.6237 13.4733 12.6323 13.3806 12.587C13.3202 12.5568 13.3116 12.533 13.3331 12.4554C13.3784 12.2936 13.5251 12.1168 13.7538 11.9507C13.8702 11.8665 14.3426 11.5797 14.5626 11.4588C14.925 11.2605 15.2183 11.1418 15.4168 11.1137C15.4793 11.1051 15.5549 11.103 15.5786 11.1137C15.6174 11.1289 15.6605 11.2432 15.6778 11.3812C15.6864 11.4546 15.6821 11.7781 15.6713 11.8364ZM15.3132 8.0465L15.3089 8.04434C14.9466 7.7553 14.6748 7.61941 14.6748 7.61941C16.1005 5.98009 16.9828 5.8895 16.9828 5.8895C17.0798 6.02107 17.1424 6.18932 17.1769 6.38345C17.3775 7.53529 16.5988 9.55425 16.5988 9.55425C16.2731 8.974 15.8352 8.46064 15.3132 8.0465Z" fill="#FFA409"/>
<path d="M17.1787 6.38189C17.0105 6.36032 16.2145 6.35601 15.3129 8.04494L15.3086 8.04278C14.9462 7.75375 14.6744 7.61786 14.6744 7.61786C16.1002 5.97853 16.9824 5.88794 16.9824 5.88794C17.0816 6.01951 17.1442 6.18776 17.1787 6.38189Z" fill="#FF9300"/>
<path d="M16.6005 9.55311C16.2726 8.97072 15.8369 8.45953 15.3127 8.04539C16.2143 6.35646 17.0082 6.36077 17.1785 6.38234C17.3791 7.53633 16.6005 9.55311 16.6005 9.55311Z" fill="#FF8300"/>
<path d="M17.211 6.38904C17.2002 6.38688 17.1894 6.38473 17.1786 6.38257L17.211 6.38904Z" fill="#FF8300"/>
<path d="M9.15781 7.61786C9.15781 7.61786 8.87737 7.75375 8.50204 8.04278C8.50204 8.04278 8.4999 8.04494 8.49771 8.04494C7.56376 6.35385 6.74194 6.36032 6.56506 6.38189C6.59957 6.18776 6.66429 6.01736 6.76567 5.88794C6.76782 5.88794 7.68239 5.97853 9.15781 7.61786Z" fill="#FF9300"/>
<path d="M8.49962 8.04539C8.0898 8.36031 7.5678 8.85425 7.1666 9.55311C7.1666 9.55311 6.35988 7.53633 6.56695 6.38234C6.74167 6.36077 7.56564 6.35646 8.49962 8.04539Z" fill="#FF8300"/>
<path d="M6.56689 6.38257C6.55611 6.38473 6.54316 6.38688 6.53238 6.38904L6.56689 6.38257Z" fill="#FF8300"/>
<path d="M14.4183 10.6736C14.4183 10.6736 13.728 10.7167 13.8144 10.1775C13.9006 9.63826 14.4398 9.57353 14.5909 9.59511C14.7418 9.61669 15.3458 9.83239 15.2379 10.2853C15.1301 10.7383 14.9791 10.652 14.8928 10.6736C14.8066 10.6952 14.4183 10.6736 14.4183 10.6736Z" fill="white"/>
<path d="M9.32807 10.6736C9.32807 10.6736 8.63786 10.7167 8.7241 10.1775C8.81041 9.63826 9.34964 9.57353 9.50062 9.59511C9.65159 9.61669 10.2556 9.83239 10.1477 10.2853C10.0399 10.7383 9.88888 10.652 9.80263 10.6736C9.71632 10.6952 9.32807 10.6736 9.32807 10.6736Z" fill="white"/>
</svg>
