<svg width="24" height="24" viewBox="0 0 24 24" fill="none" xmlns="http://www.w3.org/2000/svg">
<g clip-path="url(#clip0_372_7554)">
<mask id="mask0_372_7554" style="mask-type:luminance" maskUnits="userSpaceOnUse" x="0" y="0" width="24" height="24">
<path d="M21 0H3C1.34315 0 0 1.34315 0 3V21C0 22.6569 1.34315 24 3 24H21C22.6569 24 24 22.6569 24 21V3C24 1.34315 22.6569 0 21 0Z" fill="white"/>
</mask>
<g mask="url(#mask0_372_7554)">
<path d="M24 8C24 3.58172 20.4183 0 16 0H8C3.58172 0 0 3.58172 0 8V16C0 20.4183 3.58172 24 8 24H16C20.4183 24 24 20.4183 24 16V8Z" fill="black"/>
<path d="M18.9781 10.6976L19.7787 8.09025L18.0679 6.86719H6.80143L4.22095 8.78715H17.4545L16.7547 10.9798H11.4449L10.9285 12.5955H16.2382L15.4059 15.2009H7.9563L9.48368 10.3597L7.77195 9.13665L5.83567 15.2009L5.22223 17.1209H14.7925L17.3134 15.9095L18.1688 13.1321L16.4571 11.9091L18.9781 10.6976Z" fill="#FCFD00"/>
</g>
</g>
<defs>
<clipPath id="clip0_372_7554">
<path d="M0 8C0 3.58172 3.58172 0 8 0H16C20.4183 0 24 3.58172 24 8V16C24 20.4183 20.4183 24 16 24H8C3.58172 24 0 20.4183 0 16V8Z" fill="white"/>
</clipPath>
</defs>
</svg>
