<svg width="24" height="24" viewBox="0 0 24 24" fill="none" xmlns="http://www.w3.org/2000/svg">
<g clip-path="url(#clip0_372_7382)">
<path d="M0 8C0 3.58172 3.58172 0 8 0H16C20.4183 0 24 3.58172 24 8V16C24 20.4183 20.4183 24 16 24H8C3.58172 24 0 20.4183 0 16V8Z" fill="black"/>
<mask id="mask0_372_7382" style="mask-type:luminance" maskUnits="userSpaceOnUse" x="0" y="0" width="24" height="24">
<path d="M21 0H3C1.34315 0 0 1.34315 0 3V21C0 22.6569 1.34315 24 3 24H21C22.6569 24 24 22.6569 24 21V3C24 1.34315 22.6569 0 21 0Z" fill="white"/>
</mask>
<g mask="url(#mask0_372_7382)">
<path d="M21 0H3C1.34315 0 0 1.34315 0 3V21C0 22.6569 1.34315 24 3 24H21C22.6569 24 24 22.6569 24 21V3C24 1.34315 22.6569 0 21 0Z" fill="#00D2FF"/>
<path d="M24 0H0V24H24V0Z" fill="black"/>
<path d="M12.8173 15.5147C12.1788 15.6658 11.5116 15.6532 10.8795 15.4779C10.2473 15.3026 9.67135 14.9705 9.20636 14.5134C8.59074 13.9339 8.19505 13.1641 8.08509 12.332C7.97513 11.5 8.15754 10.656 8.602 9.9404C8.89384 9.47388 9.24549 9.04644 9.64818 8.66863C10.9264 7.41355 13.2727 5.1304 13.2727 5.1304C11.5284 4.78944 9.71793 5.123 8.21624 6.06197C6.71455 7.00097 5.63678 8.47339 5.20616 10.1744C4.77552 11.8753 5.02505 13.6743 5.90304 15.1989C6.78104 16.7233 8.22019 17.8566 9.92246 18.3636L12.8173 15.5147Z" fill="white"/>
<path d="M11.1872 8.49114C11.8247 8.33981 12.491 8.35241 13.1223 8.52773C13.7535 8.70298 14.3288 9.03504 14.793 9.4922C16.0575 10.7402 16.3043 12.5922 15.3914 14.0571C15.0995 14.5236 14.7484 14.9515 14.3467 15.3302C13.0704 16.5832 10.7273 18.8673 10.7273 18.8673C12.4707 19.2116 14.2815 18.8799 15.7837 17.9412C17.2859 17.0024 18.3641 15.5288 18.7943 13.8262C19.2247 12.1236 18.974 10.3228 18.0946 8.79774C17.215 7.27271 15.7741 6.14056 14.0712 5.63635L11.1872 8.49114Z" fill="white"/>
</g>
</g>
<defs>
<clipPath id="clip0_372_7382">
<path d="M0 8C0 3.58172 3.58172 0 8 0H16C20.4183 0 24 3.58172 24 8V16C24 20.4183 20.4183 24 16 24H8C3.58172 24 0 20.4183 0 16V8Z" fill="white"/>
</clipPath>
</defs>
</svg>
