<svg width="24" height="24" viewBox="0 0 24 24" fill="none" xmlns="http://www.w3.org/2000/svg">
<path d="M0 8C0 3.58172 3.58172 0 8 0H16C20.4183 0 24 3.58172 24 8V16C24 20.4183 20.4183 24 16 24H8C3.58172 24 0 20.4183 0 16V8Z" fill="black"/>
<path d="M5.25 6.18172V8.63164C5.80608 8.33854 6.35791 8.37417 6.90549 8.31439V5.89294C6.30466 5.89294 5.80608 5.89812 5.25 6.18172Z" fill="#DC6529"/>
<path d="M10.1036 6.45246C9.58092 6.26483 9.05404 6.10047 8.52319 5.9953V8.3886C9.05404 8.48482 9.58069 8.64 10.1036 8.81842V6.45246Z" fill="#DC6529"/>
<path d="M8.52322 10.7825V8.38914C7.9884 8.29231 7.44934 8.25526 6.90601 8.31474V10.7362C7.44934 10.6673 7.9884 10.6948 8.52322 10.7825Z" fill="#DC6529"/>
<path d="M5.25 11.0816V13.5315C5.80608 13.2191 6.35791 13.2359 6.90549 13.1571V10.7357C6.33836 10.7822 5.80608 10.7788 5.25 11.0816Z" fill="#DC6529"/>
<path d="M8.52319 10.7821V13.1754C9.05404 13.2533 9.58069 13.3904 10.1036 13.5507V11.1847C9.58092 11.0152 9.05404 10.869 8.52319 10.7821Z" fill="#DC6529"/>
<path d="M6.90601 13.157V15.5784C7.44934 15.4908 7.9884 15.5 8.52322 15.569V13.1756C7.9884 13.0972 7.44934 13.0788 6.90601 13.157Z" fill="#DC6529"/>
<path d="M17.4439 12.1163C18.0594 11.6039 18.4059 10.7807 18.4059 9.93361C18.4059 8.62103 17.5971 8.08366 15.9142 7.91701V6.7734C15.556 6.75501 15.1963 6.71536 14.8342 6.65961V7.80181C14.4963 7.75268 14.1569 7.68916 13.8156 7.61536V6.46422C13.4459 6.38089 13.0745 6.2852 12.7006 6.18176C12.7006 6.56852 12.7006 6.95557 12.7006 7.34234C12.3516 7.24867 12.0012 7.14839 11.6485 7.04523V9.38453C11.1374 9.19598 10.6227 8.99573 10.1038 8.81873V11.1847C10.6225 11.3531 11.1374 11.5445 11.6485 11.7241V14.0633C11.1374 13.8926 10.6227 13.7102 10.1038 13.5507V15.9167C10.6225 16.067 11.1374 16.2405 11.6485 16.4026C12.0009 16.4813 12.3516 16.5575 12.7006 16.627C12.7006 17.0138 12.7006 17.4008 12.7006 17.7876C13.0742 17.8589 13.4459 17.9223 13.8156 17.9738V16.8227C14.1569 16.873 14.4966 16.9129 14.8342 16.9388V18.0809C15.1963 18.1054 15.556 18.1137 15.9142 18.1014V16.9667C17.7804 16.8647 18.7504 15.3937 18.7504 13.9268C18.7504 12.8441 18.2532 12.3194 17.4439 12.1163ZM13.8187 9.49681C14.1589 9.56581 14.4974 9.62416 14.8339 9.66841C14.9844 9.68821 15.1345 9.70516 15.2841 9.71896C15.3127 9.72151 15.3407 9.72473 15.3682 9.72818C15.3751 9.72901 15.3818 9.72991 15.3886 9.73073C15.4141 9.73388 15.4393 9.73733 15.4637 9.74138C15.4654 9.74138 15.4671 9.74198 15.4688 9.74221C15.4957 9.74656 15.5218 9.75143 15.5473 9.75631C15.5518 9.75721 15.5563 9.75803 15.5606 9.75916C15.585 9.76403 15.6088 9.76921 15.632 9.77498C15.6328 9.77498 15.6337 9.77528 15.6346 9.77558C15.66 9.78188 15.6847 9.78848 15.7084 9.79568C15.7099 9.79628 15.7116 9.79658 15.7133 9.79711C15.7864 9.81923 15.8532 9.84511 15.9136 9.87586C16.1968 10.0187 16.341 10.2635 16.341 10.6247C16.341 10.9928 16.1968 11.2545 15.9136 11.3873C15.8532 11.4155 15.7861 11.4376 15.713 11.4533C15.7116 11.4536 15.7099 11.4539 15.7084 11.4545C15.6844 11.4597 15.6598 11.464 15.6343 11.4677C15.6334 11.4677 15.6325 11.4677 15.6317 11.468C15.6085 11.4715 15.5847 11.474 15.5603 11.4761C15.5558 11.4764 15.5515 11.477 15.547 11.4772C15.5215 11.4792 15.4954 11.4807 15.4685 11.4812C15.4668 11.4812 15.4651 11.4812 15.4634 11.4812C15.439 11.4818 15.4138 11.4815 15.3883 11.4812C15.3816 11.4812 15.3748 11.481 15.3677 11.4807C15.3402 11.4798 15.3124 11.4784 15.2836 11.4761C15.1337 11.4643 14.9839 11.4494 14.8334 11.4315C14.4966 11.3919 14.1583 11.3379 13.8181 11.2735V9.49771L13.8187 9.49681ZM15.9139 15.0958C15.892 15.0992 15.8696 15.1023 15.847 15.1049C15.8404 15.1058 15.8337 15.1064 15.8272 15.107C15.8104 15.1087 15.7937 15.1101 15.7767 15.1115C15.7688 15.1121 15.7609 15.1127 15.7529 15.113C15.736 15.1142 15.7186 15.1147 15.7011 15.1153C15.6937 15.1153 15.6864 15.1159 15.6787 15.1159C15.6538 15.1164 15.6289 15.1164 15.6031 15.1159C15.3475 15.1107 15.0912 15.0955 14.8339 15.0722C14.4971 15.0417 14.1589 14.9972 13.8187 14.9423V13.0745C14.1589 13.1343 14.4974 13.1835 14.8339 13.2188C15.0915 13.2458 15.3478 13.2645 15.6031 13.2731C15.6289 13.274 15.6541 13.2752 15.6787 13.2766C15.6864 13.2772 15.6937 13.2774 15.7011 13.278C15.7184 13.2792 15.736 13.2803 15.7527 13.2818C15.7606 13.2824 15.7685 13.2832 15.7765 13.2838C15.7934 13.2852 15.8101 13.2872 15.8269 13.289C15.8334 13.2898 15.8401 13.2904 15.8467 13.2912C15.8694 13.2941 15.8917 13.297 15.9136 13.3004C16.4283 13.378 16.6969 13.6349 16.6969 14.1587C16.6969 14.6783 16.4286 15.0093 15.9139 15.0958Z" fill="#DC6529"/>
</svg>
