<svg width="24" height="24" viewBox="0 0 24 24" fill="none" xmlns="http://www.w3.org/2000/svg">
<g clip-path="url(#clip0_372_7369)">
<path d="M0 8C0 3.58172 3.58172 0 8 0H16C20.4183 0 24 3.58172 24 8V16C24 20.4183 20.4183 24 16 24H8C3.58172 24 0 20.4183 0 16V8Z" fill="#004DE5"/>
<mask id="mask0_372_7369" style="mask-type:luminance" maskUnits="userSpaceOnUse" x="0" y="0" width="24" height="24">
<path d="M21 0H3C1.34315 0 0 1.34315 0 3V21C0 22.6569 1.34315 24 3 24H21C22.6569 24 24 22.6569 24 21V3C24 1.34315 22.6569 0 21 0Z" fill="white"/>
</mask>
<g mask="url(#mask0_372_7369)">
<path d="M21 0H3C1.34315 0 0 1.34315 0 3V21C0 22.6569 1.34315 24 3 24H21C22.6569 24 24 22.6569 24 21V3C24 1.34315 22.6569 0 21 0Z" fill="#004DE5"/>
<path d="M24 0H0V24H24V0Z" fill="#004DE5"/>
<mask id="mask1_372_7369" style="mask-type:luminance" maskUnits="userSpaceOnUse" x="7" y="5" width="10" height="14">
<path d="M16.6087 5H7V18.8125H16.6087V5Z" fill="white"/>
</mask>
<g mask="url(#mask1_372_7369)">
<path d="M7 6.05568V14.5223C7.0001 14.6804 7.03515 14.8365 7.10258 14.979C7.17 15.1216 7.26807 15.2469 7.38954 15.3457L11.3174 18.5497C11.4556 18.6621 11.6273 18.7234 11.8043 18.7234C11.9814 18.7234 12.1531 18.6621 12.2913 18.5497L16.2191 15.3457C16.3406 15.2469 16.4387 15.1216 16.5061 14.979C16.5736 14.8365 16.6086 14.6804 16.6087 14.5223V6.05568C16.6087 5.7757 16.4992 5.50718 16.3045 5.3092C16.1096 5.11122 15.8454 5 15.5699 5H8.03878C7.76327 5 7.49906 5.11122 7.30425 5.3092C7.10944 5.50718 7 5.7757 7 6.05568Z" fill="white"/>
<path d="M14.6056 9.89091V8.04562C14.6056 7.80093 14.5111 7.56625 14.343 7.39322C14.1749 7.22019 13.9468 7.12299 13.7091 7.12299H9.89876C9.66095 7.12299 9.43292 7.22019 9.26477 7.39322C9.09668 7.56625 9.00221 7.80093 9.00221 8.04562V13.3998C9.00227 13.538 9.03254 13.6745 9.09073 13.7991C9.14893 13.9236 9.23354 14.0331 9.3384 14.1195L10.7258 15.2659C10.7423 15.2797 10.7622 15.2883 10.7832 15.2908C10.8043 15.2935 10.8256 15.2898 10.8448 15.2804C10.8639 15.2709 10.8801 15.2562 10.8913 15.2377C10.9026 15.2192 10.9085 15.1978 10.9085 15.1759V11.3902C10.9085 11.3597 10.9203 11.3303 10.9413 11.3087C10.9623 11.2871 10.9908 11.2749 11.0205 11.2749H12.0291C12.2075 11.2749 12.3785 11.3478 12.5046 11.4776C12.6307 11.6073 12.7016 11.7833 12.7016 11.9669V15.1759C12.7016 15.1977 12.7075 15.2189 12.7188 15.2373C12.73 15.2557 12.7461 15.2705 12.7652 15.2798C12.7841 15.2893 12.8054 15.2929 12.8264 15.2905C12.8473 15.288 12.8672 15.2795 12.8837 15.2659L14.2711 14.1195C14.3759 14.0331 14.4606 13.9236 14.5187 13.7991C14.5769 13.6745 14.6071 13.538 14.6073 13.3998V11.7362C14.6073 11.4915 14.5129 11.2569 14.3447 11.0838C14.1766 10.9108 13.9485 10.8135 13.7107 10.8135C13.9482 10.8131 14.1758 10.7157 14.3436 10.5427C14.5114 10.3697 14.6056 10.1353 14.6056 9.89091ZM12.0281 10.3523H11.0194C10.9897 10.3523 10.9612 10.3401 10.9402 10.3185C10.9191 10.2968 10.9074 10.2675 10.9074 10.2369V8.16093C10.9074 8.13036 10.9191 8.10105 10.9402 8.07944C10.9612 8.05776 10.9897 8.04562 11.0194 8.04562H12.5884C12.6181 8.04562 12.6466 8.05776 12.6676 8.07944C12.6886 8.10105 12.7005 8.13036 12.7005 8.16093V9.66025C12.7005 9.84377 12.6296 10.0198 12.5035 10.1496C12.3774 10.2793 12.2064 10.3523 12.0281 10.3523Z" fill="#004DE5"/>
</g>
</g>
</g>
<defs>
<clipPath id="clip0_372_7369">
<path d="M0 8C0 3.58172 3.58172 0 8 0H16C20.4183 0 24 3.58172 24 8V16C24 20.4183 20.4183 24 16 24H8C3.58172 24 0 20.4183 0 16V8Z" fill="white"/>
</clipPath>
</defs>
</svg>
