<svg width="24" height="24" viewBox="0 0 24 24" fill="none" xmlns="http://www.w3.org/2000/svg">
<path d="M0 8C0 3.58172 3.58172 0 8 0H16C20.4183 0 24 3.58172 24 8V16C24 20.4183 20.4183 24 16 24H8C3.58172 24 0 20.4183 0 16V8Z" fill="#0054FA"/>
<path d="M6.21824 7H8.09417L9.30492 16.9925H7.713L7.53367 14.8141H6.68909L6.50973 16.9925H5L6.21078 7H6.21824ZM6.96563 11.4461L6.8012 13.4982H7.429L7.24963 11.4461L7.13004 9.71379H7.09268L6.9731 11.4461H6.96563ZM12.6308 16.9925H11.0164V7H13.139C14.29 7 15 7.67662 15 8.88844V11.3494C15 12.5539 14.2975 13.2305 13.139 13.2305H12.6382V17L12.6308 16.9925ZM12.6457 12.026H12.997C13.2661 12.026 13.3782 11.7806 13.3782 11.3494V8.88844C13.3782 8.44236 13.2735 8.19706 12.997 8.19706H12.6457V12.0186V12.026ZM16.8535 16.9925V7H20V8.3234H18.4678V11.2825H19.8356V12.6059H18.4678V15.6691H20V16.9925H16.8535Z" fill="white"/>
</svg>
