<svg width="24" height="24" viewBox="0 0 24 24" fill="none" xmlns="http://www.w3.org/2000/svg">
<path d="M0 8C0 3.58172 3.58172 0 8 0H16C20.4183 0 24 3.58172 24 8V16C24 20.4183 20.4183 24 16 24H8C3.58172 24 0 20.4183 0 16V8Z" fill="#002D74"/>
<path d="M12.0031 4.5L5.61768 8.25151V15.7514L12.0031 19.5L18.3827 15.7514V8.25151L12.0031 4.5ZM16.4937 14.6397L12.0031 17.2765L7.51103 14.6397V9.36031L12.0031 6.72353L16.4937 9.36031V14.6397Z" fill="white"/>
<path d="M12.0029 19.5L18.3826 15.7514V8.25151L12.0029 4.5V6.725L16.4936 9.36173V14.6412L12.0029 17.2765V19.4985V19.5Z" fill="white"/>
<path d="M11.9973 4.5L5.61768 8.24858V15.7485L11.9973 19.5V17.275L7.50668 14.6382V9.35881L11.9973 6.72353V4.5Z" fill="white"/>
<path d="M14.9802 13.7528L12 15.5028L9.01688 13.7528V10.2498L12 8.49695L14.9802 10.2498L13.7402 10.9793L12 9.95577L10.2599 10.9793V13.0205L12 14.044L13.7402 13.0205L14.9802 13.7528Z" fill="white"/>
</svg>
