<svg width="24" height="24" viewBox="0 0 24 24" fill="none" xmlns="http://www.w3.org/2000/svg">
<path d="M0 8C0 3.58172 3.58172 0 8 0H16C20.4183 0 24 3.58172 24 8V16C24 20.4183 20.4183 24 16 24H8C3.58172 24 0 20.4183 0 16V8Z" fill="#010000"/>
<path d="M15.5099 15.3577L14.6165 14.4644C14.5047 14.8121 14.2243 15.0986 13.8468 15.2006L12.3115 15.6153C11.722 15.7746 11.1138 15.4246 10.9568 14.8339L10.7556 14.0771L9.49103 15.3577C9.4484 15.4003 9.42527 15.4565 9.42527 15.5172V18H8.6256V15.5172C8.6256 15.2433 8.73224 14.9843 8.92688 14.7908L10.5224 13.1956L10.4557 12.9447L8.17125 13.5568L8.16653 13.5574C8.10525 13.565 8.04919 13.5987 8.01235 13.6488L6.65354 16.0683L6 15.6061L7.35492 13.1917L7.35702 13.1888C7.52139 12.9563 7.77698 12.8014 8.05888 12.7645L10.4566 12.1328C10.5795 11.8109 10.8494 11.5496 11.2063 11.4532L12.7417 11.0384C13.3311 10.8792 13.9394 11.2291 14.0963 11.8198L14.1135 11.8844L14.1518 12.0291L16.9412 12.7645C17.2229 12.8025 17.4785 12.9572 17.6429 13.1887L17.645 13.1917L19 15.6061L18.3465 16.0683L16.9886 13.6488C16.9521 13.5992 16.8961 13.5658 16.8336 13.5573L16.8294 13.5567L14.3827 12.9011L14.4545 13.1716L16.0742 14.7909C16.2674 14.9851 16.3754 15.243 16.3754 15.5172V18H15.5758V15.5172C15.5758 15.4565 15.5526 15.4003 15.5099 15.3577ZM13.8613 14.0503C13.9047 14.2135 13.8071 14.3835 13.6425 14.428L12.1072 14.8427C11.9426 14.8872 11.7738 14.7892 11.7304 14.626L11.193 12.6041C11.1497 12.441 11.2473 12.271 11.4118 12.2265L12.9472 11.8118C13.1117 11.7673 13.2806 11.8653 13.324 12.0285L13.8613 14.0503Z" fill="white"/>
<path d="M18.3464 7.91841L19 8.37743L17.645 10.7753L17.6429 10.7783C17.4785 11.008 17.2229 11.1617 16.9412 11.1994L14.4027 11.8637V11.8994C14.4027 12.5067 13.905 13 13.2948 13H11.7052C11.095 13 10.5973 12.5067 10.5973 11.8994V11.8637L8.05888 11.1995C7.77698 11.1628 7.52139 11.009 7.35702 10.7782L7.35492 10.7752L6 8.37743L6.65354 7.91844L8.01235 10.3212C8.04919 10.371 8.10997 10.4051 8.17125 10.4126L10.5983 11.0585V10.8468L8.92692 9.18721C8.73228 8.995 8.6256 8.73772 8.6256 8.46574V6H9.42527V8.46574C9.42527 8.52597 9.4484 8.58178 9.49103 8.62414L10.6024 9.72667C10.651 9.16372 11.1281 8.72091 11.7063 8.72091H13.2957C13.8739 8.72091 14.351 9.16367 14.3996 9.72662L15.5099 8.62414C15.5526 8.58179 15.5758 8.52597 15.5758 8.46574V6H16.3754V8.46574C16.3754 8.73804 16.2675 8.99408 16.0744 9.18694L14.4027 10.8468V11.0585L16.8294 10.4127C16.8918 10.4043 16.9521 10.3705 16.9886 10.3212L18.3464 7.91841ZM13.6041 11.9004C13.6041 12.0682 13.4661 12.2059 13.2957 12.2059H11.7063C11.5359 12.2059 11.3979 12.0682 11.3979 11.9004V9.82158C11.3979 9.65383 11.5359 9.51603 11.7063 9.51603H13.2957C13.4661 9.51603 13.6041 9.65383 13.6041 9.82158V11.9004Z" fill="#FCCD0C"/>
</svg>
