<svg width="24" height="24" viewBox="0 0 24 24" fill="none" xmlns="http://www.w3.org/2000/svg">
<path d="M0 8C0 3.58172 3.58172 0 8 0H16C20.4183 0 24 3.58172 24 8V16C24 20.4183 20.4183 24 16 24H8C3.58172 24 0 20.4183 0 16V8Z" fill="#2F374A"/>
<path d="M13.9735 11.3939L15.319 9.11085L18.9456 14.7595L18.9473 15.8436L18.9356 8.38402C18.9269 8.2017 18.8301 8.0349 18.6756 7.9365L12.1463 4.18071C11.9936 4.10561 11.7998 4.10647 11.6474 4.18309C11.6268 4.19335 11.6074 4.2046 11.589 4.21686L11.5662 4.23116L5.22848 7.9038L5.20391 7.91497C5.17229 7.92952 5.14028 7.94797 5.11032 7.9695C4.99013 8.0556 4.91036 8.1831 4.88454 8.32597C4.88066 8.34765 4.87778 8.3697 4.87646 8.39205L4.88643 14.4708L8.26448 9.23497C8.6898 8.5407 9.61643 8.31712 10.4766 8.32927L11.4862 8.3559L5.53751 17.8959L6.23873 18.2995L12.2586 8.36557L14.9195 8.3559L8.9151 18.5406L11.4173 19.9798L11.7162 20.1517C11.8427 20.2031 11.9918 20.2057 12.1193 20.1597L18.7404 16.3226L17.4746 17.0562L13.9735 11.3939ZM14.4868 18.7876L11.9596 14.8212L13.5023 12.2033L16.8214 17.4347L14.4868 18.7876Z" fill="#2D374B"/>
<path d="M12.0376 13.6948L13.8962 16.6119L15.6131 15.6169L13.1721 11.7696L12.0376 13.6948Z" fill="#28A0F0"/>
<path d="M17.1767 14.4457L17.1755 13.6485L14.5084 9.49432L13.5189 11.1734L16.0936 15.3375L17.0246 14.798C17.1158 14.7238 17.1711 14.615 17.1769 14.4976L17.1767 14.4457Z" fill="#28A0F0"/>
<path d="M6 15.1975L7.31461 15.955L11.6894 8.93905L10.9469 8.91947C10.3143 8.91054 9.63284 9.07501 9.32004 9.58554L6.83577 13.4361L6 14.7202V15.1975Z" fill="white"/>
<path d="M14.2143 8.93854L12.2575 8.94565L7.83029 16.2513L9.37773 17.1423L9.79852 16.4286L14.2143 8.93854Z" fill="white"/>
<path d="M18.0012 8.92936C17.9848 8.5201 17.7632 8.14547 17.4161 7.92736L12.5513 5.12975C12.208 4.95688 11.7791 4.95666 11.4352 5.12964C11.3945 5.15015 6.70433 7.87027 6.70433 7.87027C6.63942 7.90141 6.57689 7.93849 6.51809 7.98059C6.20825 8.20264 6.0194 8.54773 6 8.92682V14.7206L6.83577 13.4365L6.82847 8.96598C6.82945 8.9496 6.8315 8.93355 6.83441 8.91767C6.85331 8.81248 6.91204 8.71866 7.00046 8.65523C7.02252 8.63946 11.7928 5.87818 11.808 5.87061C11.9201 5.8143 12.0627 5.81363 12.1749 5.86886L16.9767 8.63091C17.0903 8.70322 17.1615 8.82589 17.1678 8.96003V14.4978C17.1621 14.6152 17.1156 14.7241 17.0243 14.7982L16.0934 15.3377L15.613 15.6161L13.8961 16.6111L12.155 17.6201C12.0612 17.654 11.9516 17.6521 11.8586 17.6143L9.79858 16.4294L9.37774 17.1431L11.229 18.209C11.2902 18.2438 11.3448 18.2747 11.3895 18.2998C11.4589 18.3386 11.5061 18.3647 11.5228 18.3728C11.6543 18.4367 11.8437 18.4739 12.0143 18.4739C12.1707 18.4739 12.3232 18.4452 12.4675 18.3886L17.5248 15.4599C17.815 15.2349 17.9858 14.8958 18.0012 14.5284V8.92936Z" fill="#96BEDC"/>
</svg>
