<svg width="24" height="24" viewBox="0 0 24 24" fill="none" xmlns="http://www.w3.org/2000/svg">
<g clip-path="url(#clip0_372_7414)">
<mask id="mask0_372_7414" style="mask-type:luminance" maskUnits="userSpaceOnUse" x="0" y="0" width="24" height="24">
<path d="M21 0H3C1.34315 0 0 1.34315 0 3V21C0 22.6569 1.34315 24 3 24H21C22.6569 24 24 22.6569 24 21V3C24 1.34315 22.6569 0 21 0Z" fill="white"/>
</mask>
<g mask="url(#mask0_372_7414)">
<path d="M21 0H3C1.34315 0 0 1.34315 0 3V21C0 22.6569 1.34315 24 3 24H21C22.6569 24 24 22.6569 24 21V3C24 1.34315 22.6569 0 21 0Z" fill="#E84142"/>
<mask id="mask1_372_7414" style="mask-type:luminance" maskUnits="userSpaceOnUse" x="0" y="0" width="24" height="24">
<path d="M16 0H8C3.58172 0 0 3.58172 0 8V16C0 20.4183 3.58172 24 8 24H16C20.4183 24 24 20.4183 24 16V8C24 3.58172 20.4183 0 16 0Z" fill="white"/>
</mask>
<g mask="url(#mask1_372_7414)">
<path d="M19.5 3H4.5V18.75H19.5V3Z" fill="white"/>
<path d="M23.9681 11.984C23.9681 18.6027 18.6027 23.9681 11.984 23.9681C5.36544 23.9681 0 18.6027 0 11.984C0 5.36544 5.36544 0 11.984 0C18.6027 0 23.9681 5.36544 23.9681 11.984ZM8.5881 16.753H6.26234C5.77363 16.753 5.53223 16.753 5.38503 16.6589C5.22605 16.5559 5.1289 16.3851 5.11712 16.1966C5.10828 16.023 5.229 15.811 5.4704 15.3871L11.213 5.26492C11.4574 4.83509 11.581 4.62017 11.7371 4.54069C11.9048 4.45532 12.1051 4.45532 12.2729 4.54069C12.4289 4.62017 12.5525 4.83509 12.7969 5.26492L13.9775 7.32573L13.9834 7.33625C14.2474 7.79738 14.3812 8.03122 14.4397 8.27662C14.5044 8.54453 14.5044 8.8272 14.4397 9.0951C14.3808 9.34237 14.2483 9.57788 13.9804 10.046L10.964 15.3782L10.9562 15.3919C10.6905 15.8568 10.5558 16.0924 10.3693 16.2702C10.1661 16.4646 9.92175 16.6058 9.65385 16.6854C9.4095 16.753 9.13567 16.753 8.5881 16.753ZM14.4614 16.753H17.794C18.2857 16.753 18.5329 16.753 18.6803 16.6561C18.8392 16.5529 18.9392 16.3792 18.9482 16.1909C18.9566 16.0229 18.8386 15.8191 18.6072 15.4198C18.5992 15.4062 18.5912 15.3923 18.583 15.3783L16.9138 12.5226L16.8948 12.4904C16.6602 12.0938 16.5418 11.8935 16.3898 11.816C16.222 11.7307 16.0247 11.7307 15.8569 11.816C15.7038 11.8955 15.5802 12.1046 15.3358 12.5255L13.6724 15.3812L13.6667 15.3911C13.4233 15.8114 13.3016 16.0214 13.3103 16.1938C13.3221 16.3822 13.4192 16.5559 13.5782 16.6589C13.7225 16.753 13.9698 16.753 14.4614 16.753Z" fill="#E84142"/>
</g>
</g>
</g>
<defs>
<clipPath id="clip0_372_7414">
<path d="M0 8C0 3.58172 3.58172 0 8 0H16C20.4183 0 24 3.58172 24 8V16C24 20.4183 20.4183 24 16 24H8C3.58172 24 0 20.4183 0 16V8Z" fill="white"/>
</clipPath>
</defs>
</svg>
