<svg width="24" height="24" viewBox="0 0 24 24" fill="none" xmlns="http://www.w3.org/2000/svg">
<path d="M0 8C0 3.58172 3.58172 0 8 0H16C20.4183 0 24 3.58172 24 8V16C24 20.4183 20.4183 24 16 24H8C3.58172 24 0 20.4183 0 16V8Z" fill="#FCFF52"/>
<path d="M17.9991 18H6V6H18V10.1889H16.0087C15.3224 8.66053 13.7772 7.59664 12.009 7.59664C9.57158 7.59664 7.59748 9.588 7.59748 12.0081C7.59748 14.4291 9.57158 16.4034 12.009 16.4034C13.8116 16.4034 15.3567 15.3045 16.0431 13.7428H18V18H17.9991Z" fill="black"/>
</svg>
