<svg width="24" height="24" viewBox="0 0 24 24" fill="none" xmlns="http://www.w3.org/2000/svg">
<g clip-path="url(#clip0_372_7445)">
<path d="M0 8C0 3.58172 3.58172 0 8 0H16C20.4183 0 24 3.58172 24 8V16C24 20.4183 20.4183 24 16 24H8C3.58172 24 0 20.4183 0 16V8Z" fill="#F4F1E6"/>
<mask id="mask0_372_7445" style="mask-type:luminance" maskUnits="userSpaceOnUse" x="0" y="0" width="24" height="24">
<path d="M21 0H3C1.34315 0 0 1.34315 0 3V21C0 22.6569 1.34315 24 3 24H21C22.6569 24 24 22.6569 24 21V3C24 1.34315 22.6569 0 21 0Z" fill="white"/>
</mask>
<g mask="url(#mask0_372_7445)">
<path d="M24 8C24 3.58172 20.4183 0 16 0H8C3.58172 0 0 3.58172 0 8V16C0 20.4183 3.58172 24 8 24H16C20.4183 24 24 20.4183 24 16V8Z" fill="#F4F1E6"/>
<mask id="mask1_372_7445" style="mask-type:luminance" maskUnits="userSpaceOnUse" x="5" y="5" width="14" height="14">
<path d="M19 5H5V19H19V5Z" fill="white"/>
</mask>
<g mask="url(#mask1_372_7445)">
<path d="M5 12.0004C5 8.13408 8.12488 5 11.9791 5C15.834 5 18.9589 8.13408 18.9586 12C18.9586 13.3694 18.5664 14.6468 17.8889 15.7255C17.7021 16.0227 17.494 16.3047 17.266 16.5699L11.9883 11.2768L7.4501 15.8281L6.70082 16.5796C6.47212 16.315 6.26334 16.0333 6.07654 15.7365C5.39456 14.6557 5 13.3742 5 12.0004ZM17.0888 14.728L17.1526 14.5999C17.553 13.7988 17.7649 12.8999 17.7649 12.0004C17.7649 8.80083 15.1695 6.19784 11.9794 6.19784C8.78933 6.19784 6.19432 8.80083 6.19432 12.0004C6.19432 12.9048 6.40791 13.8078 6.81208 14.6119L6.8763 14.7394L11.9883 9.61224L17.0888 14.728ZM11.9794 19C13.717 19 15.3066 18.3632 16.5283 17.3093L11.9887 12.7559L7.44043 17.3173C8.66047 18.3666 10.2418 19 11.9794 19Z" fill="url(#paint0_linear_372_7445)"/>
</g>
</g>
</g>
<defs>
<linearGradient id="paint0_linear_372_7445" x1="11.9792" y1="5" x2="12" y2="19" gradientUnits="userSpaceOnUse">
<stop stop-color="#169E00"/>
<stop offset="0.49" stop-color="#00C537"/>
<stop offset="1" stop-color="#00B1C9"/>
</linearGradient>
<clipPath id="clip0_372_7445">
<path d="M0 8C0 3.58172 3.58172 0 8 0H16C20.4183 0 24 3.58172 24 8V16C24 20.4183 20.4183 24 16 24H8C3.58172 24 0 20.4183 0 16V8Z" fill="white"/>
</clipPath>
</defs>
</svg>
