<svg width="24" height="24" viewBox="0 0 24 24" fill="none" xmlns="http://www.w3.org/2000/svg">
<g clip-path="url(#clip0_372_7391)">
<path d="M0 8C0 3.58172 3.58172 0 8 0H16C20.4183 0 24 3.58172 24 8V16C24 20.4183 20.4183 24 16 24H8C3.58172 24 0 20.4183 0 16V8Z" fill="black"/>
<mask id="mask0_372_7391" style="mask-type:luminance" maskUnits="userSpaceOnUse" x="0" y="0" width="24" height="24">
<path d="M21 0H3C1.34315 0 0 1.34315 0 3V21C0 22.6569 1.34315 24 3 24H21C22.6569 24 24 22.6569 24 21V3C24 1.34315 22.6569 0 21 0Z" fill="white"/>
</mask>
<g mask="url(#mask0_372_7391)">
<path d="M21 0H3C1.34315 0 0 1.34315 0 3V21C0 22.6569 1.34315 24 3 24H21C22.6569 24 24 22.6569 24 21V3C24 1.34315 22.6569 0 21 0Z" fill="#00D2FF"/>
<path d="M24 0H0V24H24V0Z" fill="black"/>
<mask id="mask1_372_7391" style="mask-type:luminance" maskUnits="userSpaceOnUse" x="3" y="3" width="18" height="18">
<path d="M20.25 3.75H3.75V20.25H20.25V3.75Z" fill="white"/>
</mask>
<g mask="url(#mask1_372_7391)">
<path d="M11.9776 19L11.9785 16.6178C11.7356 16.6178 11.4908 16.5987 11.2512 16.5608L10.8773 18.9141C11.24 18.9711 11.6097 19 11.9776 19ZM13.0778 18.915C13.4415 18.858 13.8028 18.7726 14.1523 18.66L13.4147 16.3936C13.1845 16.4679 12.9458 16.5244 12.7058 16.5617L13.0778 18.915ZM9.80241 18.6586L10.5419 16.3927C10.3112 16.3184 10.0852 16.225 9.86958 16.1157L8.7806 18.2377C9.10799 18.404 9.45193 18.5456 9.80241 18.6586ZM15.1736 18.2405C15.5015 18.0747 15.8186 17.8813 16.1165 17.666L14.7066 15.7396C14.5108 15.8817 14.3021 16.0087 14.0865 16.1175L15.1736 18.2405ZM7.83815 17.6622L9.24944 15.7369C9.05446 15.5958 8.86846 15.4369 8.69551 15.2656L7.00003 16.949L7.00143 16.9504C7.26171 17.2092 7.54312 17.4488 7.83815 17.6622ZM16.9434 16.9648L16.9579 16.9499C17.2172 16.6921 17.4578 16.4127 17.673 16.1199L15.7369 14.7162C15.595 14.9096 15.4358 15.0946 15.2638 15.266L15.2399 15.2903L16.0545 16.0549L16.9434 16.9648ZM6.28311 16.1152L8.22007 14.713C8.07729 14.5182 7.9495 14.3108 7.83956 14.0964L5.70478 15.1777C5.87156 15.5033 6.06606 15.819 6.28311 16.1152ZM18.2522 15.1824C18.4195 14.8568 18.5619 14.5149 18.676 14.1664L16.397 13.4308C16.3223 13.6601 16.2283 13.8848 16.1184 14.0992L18.2522 15.1824ZM5.28243 14.1613L7.56191 13.4275C7.48721 13.1986 7.43037 12.9613 7.3923 12.7226L5.02545 13.0935C5.08277 13.4551 5.16921 13.8138 5.28243 14.1613ZM18.9335 13.0986C18.9908 12.738 19.0199 12.37 19.0204 12.0047L16.6244 12.0033C16.6244 12.2448 16.6051 12.4881 16.5671 12.7268L18.9335 13.0986ZM7.33546 11.9996C7.33546 11.758 7.35473 11.5142 7.3923 11.276L5.02545 10.9051C4.96814 11.2657 4.93948 11.6338 4.93901 11.9991L7.33546 11.9996ZM16.568 11.2797L18.9348 10.9103C18.878 10.5487 18.7916 10.1895 18.6788 9.84197L16.3989 10.5744C16.4736 10.8038 16.5304 11.0411 16.568 11.2797ZM7.56191 10.5716C7.63661 10.3422 7.73056 10.1171 7.84003 9.90274L5.70526 8.82093C5.53848 9.14645 5.39613 9.48839 5.28243 9.83686L7.56191 10.5716ZM16.1212 9.90597L18.257 8.82604C18.0902 8.50001 17.8957 8.1847 17.6791 7.88857L15.7411 9.28985C15.8835 9.48464 16.0113 9.69153 16.1212 9.90597ZM8.22104 9.28616C8.3634 9.09182 8.52309 8.90589 8.69603 8.7345L8.70069 8.72984L7.0066 7.04545L7.00191 7.05011C6.74164 7.3089 6.50016 7.58963 6.28452 7.88343L8.22104 9.28616ZM15.2723 8.7429L15.7839 8.22395L16.9617 7.05338L16.9579 7.04965C16.6991 6.79227 16.4186 6.55359 16.1245 6.34012L14.7123 8.26461C14.9068 8.40568 15.0924 8.56356 15.2638 8.7345L15.2723 8.7429ZM9.25507 8.25944C9.45096 8.11792 9.65959 7.99086 9.8752 7.88203L8.78952 5.75858C8.46154 5.9244 8.14449 6.11731 7.84662 6.33265L9.25507 8.25944ZM14.0927 7.88576L15.183 5.76465C14.8556 5.59836 14.5122 5.45636 14.1617 5.34332L13.4208 7.60877C13.6515 7.6835 13.8774 7.77646 14.0931 7.88623L14.0927 7.88576ZM10.548 7.60598C10.7786 7.53217 11.0173 7.47564 11.2569 7.43828L10.8862 5.08454C10.5231 5.14106 10.1613 5.22654 9.81178 5.33911L10.548 7.60598ZM12.7118 7.43968L13.0867 5.08641C12.7241 5.02943 12.3539 5 11.9865 5L11.9841 7.38222C12.227 7.38222 12.4718 7.40185 12.7118 7.43968Z" fill="white"/>
<path d="M11.9792 16.7228V14.3286C11.7769 14.3286 11.5749 14.3023 11.3796 14.2511L10.7544 16.5641C11.1535 16.6693 11.5654 16.7228 11.9792 16.7228ZM13.204 16.5641C13.6045 16.4585 13.9898 16.3013 14.348 16.0966L13.1356 14.0234C12.9613 14.123 12.774 14.1994 12.5792 14.2506L13.204 16.5641ZM9.60994 16.0961L10.8229 14.0234C10.6489 13.9239 10.4879 13.8014 10.3435 13.6591L10.3212 13.6375L9.55576 14.4337L8.61651 15.3383L8.63028 15.3515C8.92386 15.6416 9.25313 15.8919 9.60994 16.0961ZM15.3281 15.3524C15.6213 15.0618 15.875 14.7365 16.0812 14.3844L13.9841 13.1855C13.8834 13.3572 13.7594 13.5164 13.6154 13.6586L15.3281 15.3524ZM7.87441 14.3792L9.97334 13.1831C9.87268 13.0108 9.79568 12.8258 9.7439 12.6329L7.40216 13.2484C7.50858 13.6441 7.66773 14.0248 7.87441 14.3792ZM16.5553 13.2544C16.6618 12.8601 16.7159 12.4531 16.7164 12.0442L14.2934 12.0433C14.2934 12.2437 14.2668 12.4432 14.2145 12.6362L16.5553 13.2544ZM9.66599 12.0404C9.66599 11.8399 9.69256 11.6404 9.74532 11.4475L7.40501 10.8278C7.29811 11.2221 7.24347 11.6292 7.24347 12.0381L9.66599 12.0404ZM14.215 11.4503L16.5563 10.8339C16.4494 10.4382 16.2902 10.0574 16.0836 9.70347L13.9851 10.9006C14.0858 11.0728 14.1633 11.2578 14.215 11.4503ZM9.97574 10.8978C10.075 10.7283 10.1976 10.571 10.3392 10.4302L10.3453 10.4241L9.47876 9.56777L8.64547 8.71851L8.63028 8.73306C8.33761 9.02224 8.08486 9.34666 7.87915 9.69785L9.97574 10.8978ZM13.6169 10.4269L14.4749 9.57908L15.3505 8.75472L15.3287 8.73261C15.036 8.44342 14.7067 8.19322 14.3509 7.98946L13.137 10.0616C13.3085 10.1598 13.4681 10.2809 13.6107 10.4208L13.6169 10.4269ZM10.8243 10.0603C10.9981 9.96072 11.1854 9.88469 11.3806 9.83303L10.7572 7.51954C10.3563 7.62516 9.97147 7.78197 9.61279 7.98665L10.8243 10.0603ZM12.5807 9.83394L13.2073 7.52095C12.8082 7.41531 12.3963 7.3618 11.9825 7.36133L11.9811 9.75558C12.184 9.75558 12.3859 9.78183 12.5812 9.83348L12.5807 9.83394Z" fill="white"/>
</g>
</g>
</g>
<defs>
<clipPath id="clip0_372_7391">
<path d="M0 8C0 3.58172 3.58172 0 8 0H16C20.4183 0 24 3.58172 24 8V16C24 20.4183 20.4183 24 16 24H8C3.58172 24 0 20.4183 0 16V8Z" fill="white"/>
</clipPath>
</defs>
</svg>
