<svg width="24" height="24" viewBox="0 0 24 24" fill="none" xmlns="http://www.w3.org/2000/svg">
<g clip-path="url(#clip0_372_7517)">
<path d="M0 8C0 3.58172 3.58172 0 8 0H16C20.4183 0 24 3.58172 24 8V16C24 20.4183 20.4183 24 16 24H8C3.58172 24 0 20.4183 0 16V8Z" fill="#FEEFDF"/>
<mask id="mask0_372_7517" style="mask-type:luminance" maskUnits="userSpaceOnUse" x="0" y="0" width="24" height="24">
<path d="M21 0H3C1.34315 0 0 1.34315 0 3V21C0 22.6569 1.34315 24 3 24H21C22.6569 24 24 22.6569 24 21V3C24 1.34315 22.6569 0 21 0Z" fill="white"/>
</mask>
<g mask="url(#mask0_372_7517)">
<path d="M20.375 2H4.625C3.17525 2 2 3.17525 2 4.625V20.375C2 21.8247 3.17525 23 4.625 23H20.375C21.8247 23 23 21.8247 23 20.375V4.625C23 3.17525 21.8247 2 20.375 2Z" fill="#FFE4C6"/>
<path d="M23 2H2V23H23V2Z" fill="#FEEFDF"/>
<path d="M18.2575 14.9987V6.27785C18.2459 5.54814 17.6784 4.96082 16.9661 4.96082H8.08235C6.16546 4.99048 4.625 6.59821 4.625 8.56781C4.625 9.23227 4.79874 9.80183 5.06513 10.3002C5.29099 10.7155 5.64425 11.107 5.99173 11.3977C6.09018 11.4807 6.04385 11.4451 6.34499 11.635C6.76196 11.896 7.23684 12.0265 7.23684 12.0265L7.23105 17.2413C7.24263 17.4905 7.2658 17.7278 7.3295 17.9473C7.5264 18.6829 8.02444 19.2465 8.70202 19.5194C8.98578 19.6321 9.30433 19.7092 9.64597 19.7152L16.7402 19.7389C18.1533 19.7389 19.2999 18.5643 19.2999 17.1107C19.3057 16.2505 18.8888 15.4793 18.2575 14.9987Z" fill="#FFEEDA"/>
<path d="M18.4315 17.1773C18.4025 18.1087 17.6555 18.8561 16.7405 18.8561L11.8585 18.8384C12.2465 18.3757 12.4839 17.7764 12.4839 17.1238C12.4839 16.0975 11.8874 15.3915 11.8874 15.3915H16.7462C17.6786 15.3915 18.4373 16.1687 18.4373 17.1238L18.4315 17.1773Z" fill="#EBC28E"/>
<path d="M6.45503 10.6625C5.89328 10.1167 5.49947 9.41077 5.49947 8.57425V8.48526C5.5458 7.0555 6.69246 5.90457 8.08815 5.86304H16.9719C17.2035 5.87491 17.3889 6.04103 17.3889 6.28426V13.9848C17.5915 14.0204 17.69 14.0501 17.8869 14.1213C18.0433 14.1806 18.2575 14.3052 18.2575 14.3052V6.28426C18.2459 5.55455 17.6784 4.96722 16.9661 4.96722H8.08235C6.16546 4.99689 4.625 6.60462 4.625 8.57425C4.625 9.71921 5.13463 10.6981 5.96856 11.3863C6.02647 11.4338 6.07859 11.4931 6.22917 11.4931C6.48977 11.4931 6.67509 11.2795 6.66351 11.0481C6.65771 10.8524 6.57664 10.7812 6.45503 10.6625Z" fill="#101010"/>
<path d="M16.7401 14.4898H9.77328C9.30419 14.4957 8.9277 14.8814 8.9277 15.3619V16.3882C8.93932 16.8629 9.33313 17.2663 9.80222 17.2663H10.3176V16.3882H9.80222V15.3857C9.80222 15.3857 9.9296 15.3857 10.086 15.3857C10.9662 15.3857 11.6149 16.2221 11.6149 17.118C11.6149 17.9129 10.9083 18.9274 9.72695 18.8444C8.67872 18.7732 8.11117 17.818 8.11117 17.118V8.42078C8.11117 8.02922 7.79845 7.70886 7.41623 7.70886H6.72128V8.59872H7.2367V17.1239C7.20775 18.8562 8.44127 19.7283 9.72695 19.7283L16.7459 19.752C18.159 19.752 19.3056 18.5774 19.3056 17.1239C19.3056 15.6704 18.1532 14.4898 16.7401 14.4898ZM18.4311 17.1773C18.4022 18.1087 17.6551 18.8562 16.7401 18.8562L11.8581 18.8384C12.2462 18.3757 12.4836 17.7764 12.4836 17.1239C12.4836 16.0976 11.8871 15.3916 11.8871 15.3916H16.7459C17.6783 15.3916 18.437 16.1688 18.437 17.1239L18.4311 17.1773Z" fill="#101010"/>
<path d="M14.8636 8.75898H9.61096V7.86908H14.8636C15.101 7.86908 15.298 8.06485 15.298 8.31402C15.298 8.55726 15.1069 8.75898 14.8636 8.75898Z" fill="#101010"/>
<path d="M14.8636 12.9465H9.61096V12.0565H14.8636C15.101 12.0565 15.298 12.2523 15.298 12.5015C15.298 12.7447 15.1069 12.9465 14.8636 12.9465Z" fill="#101010"/>
<path d="M15.7902 10.852H9.61096V9.96216H15.7844C16.0219 9.96216 16.2187 10.1579 16.2187 10.4071C16.2245 10.6504 16.0276 10.852 15.7902 10.852Z" fill="#101010"/>
</g>
</g>
<defs>
<clipPath id="clip0_372_7517">
<path d="M0 8C0 3.58172 3.58172 0 8 0H16C20.4183 0 24 3.58172 24 8V16C24 20.4183 20.4183 24 16 24H8C3.58172 24 0 20.4183 0 16V8Z" fill="white"/>
</clipPath>
</defs>
</svg>
