<svg width="24" height="24" viewBox="0 0 24 24" fill="none" xmlns="http://www.w3.org/2000/svg">
<path d="M0 8C0 3.58172 3.58172 0 8 0H16C20.4183 0 24 3.58172 24 8V16C24 20.4183 20.4183 24 16 24H8C3.58172 24 0 20.4183 0 16V8Z" fill="black"/>
<path d="M7.36256 12.1179L7.37007 14.8713L9.70968 16.2481V17.8601L6.00083 15.6849V11.3127L7.36256 12.1179ZM7.36256 9.36436V10.9689L6 10.1629V8.55835L7.36256 7.75232L8.73177 8.55835L7.36256 9.36436ZM10.6867 8.55835L12.0493 7.75232L13.4186 8.55835L12.0493 9.36436L10.6867 8.55835Z" fill="#F0B90B"/>
<path d="M8.34723 14.3006V12.6886L9.70979 13.4946V15.0991L8.34723 14.3006ZM10.6869 16.8255L12.0494 17.6315L13.4186 16.8255V18.43L12.0494 19.236L10.6869 18.43V16.8255ZM15.3728 8.55835L16.7354 7.75232L18.1046 8.55835V10.1629L16.7354 10.9689V9.36436L15.3728 8.55835ZM16.7354 14.8713L16.7429 12.1179L18.1054 11.3119V15.684L14.3965 17.8593V16.2473L16.7354 14.8713Z" fill="#F0B90B"/>
<path d="M15.7581 14.3017L14.3955 15.1003V13.4957L15.7581 12.6897V14.3017Z" fill="#F0B90B"/>
<path d="M15.7583 9.93544L15.7658 11.5475L13.4195 12.9242V15.6844L12.0569 16.4829L10.6943 15.6844V12.9242L8.34806 11.5475V9.93544L9.71644 9.12942L12.0486 10.5128L14.3949 9.12942L15.7641 9.93544H15.7583ZM8.34723 7.18277L12.0494 5L15.7583 7.18277L14.3958 7.98879L12.0494 6.60537L9.70979 7.98879L8.34723 7.18277Z" fill="#F0B90B"/>
</svg>
