<svg width="24" height="24" viewBox="0 0 24 24" fill="none" xmlns="http://www.w3.org/2000/svg">
<g clip-path="url(#clip0_372_7468)">
<path d="M0 8C0 3.58172 3.58172 0 8 0H16C20.4183 0 24 3.58172 24 8V16C24 20.4183 20.4183 24 16 24H8C3.58172 24 0 20.4183 0 16V8Z" fill="url(#paint0_linear_372_7468)"/>
<path d="M21 0H3C1.34315 0 0 1.34315 0 3V21C0 22.6569 1.34315 24 3 24H21C22.6569 24 24 22.6569 24 21V3C24 1.34315 22.6569 0 21 0Z" fill="url(#paint1_linear_372_7468)"/>
<path d="M13.4721 13.6979C10.745 14.4917 8.48917 15.6495 7.07703 17.0061L7.01468 17.0663C7.39017 17.4107 7.80193 17.7187 8.24701 17.9805L8.34271 17.8671C8.72836 17.4107 9.14159 16.9697 9.57213 16.5539C10.7276 15.4381 12.0499 14.4721 13.4736 13.6965L13.4721 13.6979Z" fill="url(#paint2_radial_372_7468)"/>
<path d="M13.4721 13.6979C10.745 14.4917 8.48917 15.6495 7.07703 17.0061L7.01468 17.0663C7.39017 17.4107 7.80193 17.7187 8.24701 17.9805L8.34271 17.8671C8.72836 17.4107 9.14159 16.9697 9.57213 16.5539C10.7276 15.4381 12.0499 14.4721 13.4736 13.6965L13.4721 13.6979Z" fill="#F5F5F5"/>
<path d="M4.78467 12.522C4.8934 13.9374 5.43563 15.2353 6.28667 16.2909L6.32581 16.2531C7.20004 15.4172 8.33815 14.657 9.7111 13.9949C10.9145 13.4138 12.2961 12.9154 13.7851 12.522H4.78467Z" fill="url(#paint3_radial_372_7468)"/>
<path d="M4.78467 12.522C4.8934 13.9374 5.43563 15.2353 6.28667 16.2909L6.32581 16.2531C7.20004 15.4172 8.33815 14.657 9.7111 13.9949C10.9145 13.4138 12.2961 12.9154 13.7851 12.522H4.78467Z" fill="#F5F5F5"/>
<path d="M10.3347 6.70521C12.7748 9.06142 15.8454 10.6196 19.2133 11.2105C18.8074 7.71741 15.7396 5 12.0121 5C11.0277 5 10.0897 5.1904 9.23283 5.5334C9.58078 5.9394 9.95199 6.3342 10.3347 6.70521Z" fill="url(#paint4_radial_372_7468)"/>
<path d="M10.3347 6.70521C12.7748 9.06142 15.8454 10.6196 19.2133 11.2105C18.8074 7.71741 15.7396 5 12.0121 5C11.0277 5 10.0897 5.1904 9.23283 5.5334C9.58078 5.9394 9.95199 6.3342 10.3347 6.70521Z" fill="#F5F5F5"/>
<path d="M7.07703 6.99394C8.48917 8.35196 10.745 9.50835 13.4721 10.3036C12.0484 9.52658 10.7262 8.56194 9.57068 7.44615C9.14159 7.03174 8.72836 6.59074 8.34126 6.13293L8.24558 6.01953C7.80048 6.28134 7.38873 6.58934 7.01468 6.93374L7.07703 6.99394Z" fill="#F5F5F5"/>
<path d="M10.3347 17.2948C9.95053 17.6658 9.57939 18.0606 9.23283 18.4666C10.0882 18.8096 11.0277 19 12.0121 19C15.7396 19 18.8074 16.2826 19.2148 12.7881C15.8469 13.379 12.7762 14.9372 10.3361 17.2934L10.3347 17.2948Z" fill="#F5F5F5"/>
<path d="M9.7111 10.0045C8.33815 9.34224 7.20004 8.58203 6.32581 7.74624L6.28667 7.70844C5.43563 8.76406 4.8934 10.0619 4.78467 11.4773H13.7836C12.2947 11.0839 10.9145 10.5854 9.70965 10.0031L9.7111 10.0045Z" fill="#F5F5F5"/>
</g>
<defs>
<linearGradient id="paint0_linear_372_7468" x1="0" y1="0" x2="24" y2="0" gradientUnits="userSpaceOnUse">
<stop stop-color="#102D3C"/>
<stop offset="0.161465" stop-color="#214E81"/>
<stop offset="0.363625" stop-color="#506179"/>
<stop offset="0.651499" stop-color="#ED5409"/>
<stop offset="1" stop-color="#FFCB67"/>
</linearGradient>
<linearGradient id="paint1_linear_372_7468" x1="0" y1="0" x2="24" y2="0" gradientUnits="userSpaceOnUse">
<stop stop-color="#102D3C"/>
<stop offset="0.161465" stop-color="#214E81"/>
<stop offset="0.363625" stop-color="#506179"/>
<stop offset="0.651499" stop-color="#ED5409"/>
<stop offset="1" stop-color="#FFCB67"/>
</linearGradient>
<radialGradient id="paint2_radial_372_7468" cx="0" cy="0" r="1" gradientUnits="userSpaceOnUse" gradientTransform="translate(11.9998 11.9997) rotate(90) scale(7.00005 7.21496)">
<stop stop-color="#1C294B"/>
<stop offset="0.317213" stop-color="#FF4433"/>
<stop offset="0.597213" stop-color="#FE9A4C"/>
<stop offset="1" stop-color="#E0E0E0"/>
</radialGradient>
<radialGradient id="paint3_radial_372_7468" cx="0" cy="0" r="1" gradientUnits="userSpaceOnUse" gradientTransform="translate(11.9997 11.9998) rotate(90) scale(7.00004 7.21496)">
<stop stop-color="#1C294B"/>
<stop offset="0.317213" stop-color="#FF4433"/>
<stop offset="0.597213" stop-color="#FE9A4C"/>
<stop offset="1" stop-color="#E0E0E0"/>
</radialGradient>
<radialGradient id="paint4_radial_372_7468" cx="0" cy="0" r="1" gradientUnits="userSpaceOnUse" gradientTransform="translate(11.9998 12) rotate(90) scale(7.00005 7.21496)">
<stop stop-color="#1C294B"/>
<stop offset="0.317213" stop-color="#FF4433"/>
<stop offset="0.597213" stop-color="#FE9A4C"/>
<stop offset="1" stop-color="#E0E0E0"/>
</radialGradient>
<clipPath id="clip0_372_7468">
<path d="M0 8C0 3.58172 3.58172 0 8 0H16C20.4183 0 24 3.58172 24 8V16C24 20.4183 20.4183 24 16 24H8C3.58172 24 0 20.4183 0 16V8Z" fill="white"/>
</clipPath>
</defs>
</svg>
