<svg width="24" height="24" viewBox="0 0 24 24" fill="none" xmlns="http://www.w3.org/2000/svg">
<path d="M0 8C0 3.58172 3.58172 0 8 0H16C20.4183 0 24 3.58172 24 8V16C24 20.4183 20.4183 24 16 24H8C3.58172 24 0 20.4183 0 16V8Z" fill="#61DFFF"/>
<path d="M16.7015 18H6.77124V7.94727H9.04328V16.0518H16.7015V17.999V18Z" fill="#190066"/>
<path d="M16.7015 9.89438C17.8208 9.89438 18.7282 9.02265 18.7282 7.94723C18.7282 6.87179 17.8208 6 16.7015 6C15.5822 6 14.6748 6.87179 14.6748 7.94723C14.6748 9.02265 15.5822 9.89438 16.7015 9.89438Z" fill="#190066"/>
</svg>
