<svg width="24" height="24" viewBox="0 0 24 24" fill="none" xmlns="http://www.w3.org/2000/svg">
<path d="M0 8C0 3.58172 3.58172 0 8 0H16C20.4183 0 24 3.58172 24 8V16C24 20.4183 20.4183 24 16 24H8C3.58172 24 0 20.4183 0 16V8Z" fill="#DED8D8"/>
<path d="M5.98994 15.5995C4.36229 12.776 4.77056 9.3901 7.00245 7.082C9.54281 4.45272 13.8034 4.29304 16.5923 6.7209C19.1962 8.98727 19.7623 12.8377 17.9206 15.7537C15.6469 19.3556 10.6043 20.1014 7.41798 17.2779C6.88088 16.8007 6.47079 16.1783 5.98994 15.5995ZM9.79504 17.483C10.8076 17.8695 11.8418 18.0201 12.9215 17.8368C17.0822 17.1346 19.218 12.5456 17.0568 8.94191C15.7377 6.74086 13.0775 5.63944 10.5898 6.26545C8.18735 6.8697 6.36918 8.9165 6.12603 11.2972C5.84659 14.0009 7.23471 16.367 9.79504 17.483Z" fill="#332F30"/>
<path d="M9.76781 17.4739C7.2347 16.367 5.84658 14.0009 6.12602 11.2972C6.36917 8.9165 8.18734 6.86969 10.5898 6.26545C13.0775 5.63943 15.7377 6.74086 17.0568 8.9419C19.218 12.5456 17.0822 17.1346 12.9215 17.8368C11.8418 18.0201 10.8075 17.8695 9.76781 17.4739ZM11.3664 9.80744C11.1704 9.23586 10.9817 8.66065 10.7731 8.0927C10.7386 7.99834 10.6261 7.86951 10.5462 7.86588C10.0182 7.84592 9.49018 7.85499 8.94219 7.85499C8.94219 9.96894 8.94219 12.0393 8.94219 14.1496C9.05106 14.097 9.12002 14.0498 9.19804 14.0281C10.0128 13.7994 10.167 13.2406 10.1053 12.4621C10.0327 11.5385 10.089 10.604 10.089 9.67498C10.1815 9.74212 10.2214 9.81651 10.2505 9.89454C10.5589 10.7401 10.871 11.5857 11.1759 12.4331C11.4535 13.2133 11.4499 13.2006 12.2755 13.2279C12.5168 13.2351 12.5985 13.1389 12.6638 12.943C12.8326 12.4276 13.0104 11.9141 13.1919 11.4024C13.4042 10.8054 13.6255 10.2103 13.8433 9.6151C13.9104 10.8308 13.9068 12.0266 13.9177 13.2224C13.9177 13.3476 13.9703 13.5327 14.061 13.589C14.3695 13.7831 14.707 13.9337 15.0481 14.1061C15.0481 12.0121 15.0481 9.94353 15.0481 7.85499C14.6199 7.85499 14.2207 7.8931 13.8324 7.8441C13.3933 7.78967 13.2408 7.9802 13.1229 8.36669C12.7908 9.45361 12.417 10.5278 12.0396 11.671C11.8074 11.0196 11.5987 10.4407 11.3664 9.80744ZM13.083 15.7537C13.5711 15.8154 13.8777 15.6376 13.9612 15.242C14.0374 14.8882 13.8215 14.5398 13.4677 14.4436C13.1537 14.3565 12.8398 14.5017 12.6965 14.8011C12.5223 15.1603 12.6275 15.4525 13.083 15.7537ZM10.5263 14.4327C9.98737 14.6668 9.83495 15.2184 10.216 15.5759C10.4573 15.8027 10.744 15.8426 11.0325 15.6811C11.3265 15.516 11.4136 15.2402 11.3392 14.919C11.2612 14.5797 11.018 14.4236 10.5263 14.4327Z" fill="#DCD7D7"/>
<path d="M11.3791 9.83466C11.5987 10.4407 11.8074 11.0196 12.0396 11.671C12.417 10.5278 12.7908 9.4536 13.1229 8.36669C13.2409 7.98019 13.3933 7.78967 13.8324 7.8441C14.2207 7.89309 14.6199 7.85499 15.0481 7.85499C15.0481 9.94353 15.0481 12.0121 15.0481 14.1061C14.707 13.9337 14.3695 13.7831 14.061 13.5889C13.9703 13.5327 13.9177 13.3476 13.9177 13.2224C13.9068 12.0266 13.9104 10.8308 13.8433 9.6151C13.6255 10.2103 13.4042 10.8054 13.1919 11.4024C13.0104 11.9141 12.8326 12.4276 12.6638 12.943C12.5985 13.1389 12.5168 13.2351 12.2755 13.2279C11.4499 13.2006 11.4535 13.2133 11.1759 12.4331C10.8711 11.5857 10.559 10.7401 10.2505 9.89454C10.2214 9.81651 10.1815 9.74212 10.089 9.67498C10.089 10.604 10.0327 11.5385 10.1053 12.4621C10.167 13.2406 10.0128 13.7994 9.19805 14.0281C9.12002 14.0498 9.05107 14.097 8.9422 14.1496C8.9422 12.0393 8.9422 9.96893 8.9422 7.85499C9.49019 7.85499 10.0182 7.84592 10.5463 7.86588C10.6261 7.86951 10.7386 7.99834 10.7731 8.09269C10.9817 8.66065 11.1705 9.23586 11.3791 9.83466Z" fill="#312D2E"/>
<path d="M13.0576 15.7465C12.6275 15.4525 12.5223 15.1604 12.6965 14.8011C12.8398 14.5017 13.1537 14.3565 13.4677 14.4436C13.8215 14.5398 14.0374 14.8882 13.9612 15.242C13.8778 15.6376 13.5711 15.8154 13.0576 15.7465Z" fill="#363232"/>
<path d="M10.5553 14.4272C11.018 14.4236 11.2612 14.5797 11.3392 14.919C11.4136 15.2402 11.3265 15.516 11.0326 15.6811C10.744 15.8426 10.4573 15.8027 10.216 15.5759C9.83496 15.2184 9.98738 14.6668 10.5553 14.4272Z" fill="#353031"/>
</svg>
