<svg width="24" height="24" viewBox="0 0 24 24" fill="none" xmlns="http://www.w3.org/2000/svg">
<path d="M0 8C0 3.58172 3.58172 0 8 0H16C20.4183 0 24 3.58172 24 8V16C24 20.4183 20.4183 24 16 24H8C3.58172 24 0 20.4183 0 16V8Z" fill="#7132F5"/>
<mask id="mask0_372_7531" style="mask-type:luminance" maskUnits="userSpaceOnUse" x="5" y="5" width="14" height="14">
<path d="M19 5H5V19H19V5Z" fill="white"/>
</mask>
<g mask="url(#mask0_372_7531)">
<path d="M19 12C19 8.134 15.866 5 12 5C8.134 5 5 8.134 5 12C5 15.866 8.134 19 12 19C15.866 19 19 15.866 19 12ZM12.9991 17.2389C12.9991 17.7138 12.6094 18.0998 12.0561 18.1109C12.0408 18.111 12.0254 18.1111 12.0101 18.1111H11.9899C8.61947 18.1057 5.88889 15.3717 5.88889 12C5.88889 8.62495 8.62495 5.8889 12 5.8889C12.0182 5.8889 12.0364 5.88898 12.0545 5.88914C12.6788 5.90026 12.9991 6.28624 12.9991 6.76109C12.9991 7.24437 12.5718 7.6 12.1193 7.6C11.6666 7.6 11.6445 7.6 11.2112 7.63472C10.7779 7.66944 10.3299 8.02506 10.3299 8.50694C10.3299 8.99163 10.7237 9.382 11.2112 9.382H15.0535C15.5396 9.382 15.9334 9.77231 15.9334 10.2542C15.9334 10.736 15.5396 11.1263 15.0535 11.1263H9.13531C8.64782 11.1263 8.25408 11.5182 8.25408 12.0014C8.25408 12.4833 8.64782 12.8737 9.13531 12.8737H12.1193C12.6054 12.8737 12.9991 13.264 12.9991 13.7473C12.9991 14.2291 12.6054 14.6195 12.1193 14.6195H11.2112C10.7237 14.6195 10.3299 15.0098 10.3299 15.4917C10.3299 15.9749 10.7335 16.3277 11.2112 16.3639C11.2488 16.3667 11.2833 16.3693 11.315 16.3718C11.4831 16.3846 11.575 16.3916 11.667 16.3954C11.7777 16.4 11.8887 16.4 12.1333 16.4C12.6194 16.4 12.9991 16.757 12.9991 17.2389Z" fill="white"/>
</g>
</svg>
