<svg width="24" height="24" viewBox="0 0 24 24" fill="none" xmlns="http://www.w3.org/2000/svg">
<g clip-path="url(#clip0_372_7486)">
<path d="M0 8C0 3.58172 3.58172 0 8 0H16C20.4183 0 24 3.58172 24 8V16C24 20.4183 20.4183 24 16 24H8C3.58172 24 0 20.4183 0 16V8Z" fill="#8247E5"/>
<mask id="mask0_372_7486" style="mask-type:luminance" maskUnits="userSpaceOnUse" x="0" y="0" width="24" height="24">
<path d="M21 0H3C1.34315 0 0 1.34315 0 3V21C0 22.6569 1.34315 24 3 24H21C22.6569 24 24 22.6569 24 21V3C24 1.34315 22.6569 0 21 0Z" fill="white"/>
</mask>
<g mask="url(#mask0_372_7486)">
<path d="M16.2719 9.28252C15.9841 9.11512 15.61 9.11512 15.2934 9.28252L13.0484 10.5663L11.5229 11.4035L9.27787 12.6872C8.99002 12.8546 8.61585 12.8546 8.29927 12.6872L6.51476 11.6825C6.22694 11.5151 6.02548 11.2081 6.02548 10.8733V8.89185C6.02548 8.55697 6.19817 8.25 6.51476 8.0826L8.27047 7.10581C8.55832 6.93837 8.9325 6.93837 9.24907 7.10581L11.0048 8.0826C11.2926 8.25 11.4941 8.55697 11.4941 8.89185V10.1755L13.0196 9.3105V8.02672C13.0196 7.69185 12.8469 7.38487 12.5303 7.21744L9.27787 5.37558C8.99002 5.20814 8.61585 5.20814 8.29927 5.37558L4.98931 7.21744C4.67269 7.38487 4.5 7.69185 4.5 8.02672V11.7384C4.5 12.0733 4.67269 12.3802 4.98931 12.5476L8.29927 14.3896C8.58712 14.557 8.96122 14.557 9.27787 14.3896L11.5229 13.1337L13.0484 12.2686L15.2934 11.0128C15.5812 10.8454 15.9553 10.8454 16.2719 11.0128L18.0277 11.9896C18.3155 12.157 18.517 12.4639 18.517 12.7988V14.7802C18.517 15.1151 18.3442 15.4221 18.0277 15.5896L16.2719 16.5942C15.9841 16.7616 15.61 16.7616 15.2934 16.5942L13.5376 15.6174C13.2498 15.45 13.0484 15.143 13.0484 14.8081V13.5244L11.5229 14.3896V15.6733C11.5229 16.0081 11.6956 16.3151 12.0122 16.4825L15.3221 18.3244C15.61 18.4918 15.9842 18.4918 16.3007 18.3244L19.6107 16.4825C19.8986 16.3151 20.1 16.0081 20.1 15.6733V11.9616C20.1 11.6267 19.9274 11.3197 19.6107 11.1523L16.2719 9.28252Z" fill="white"/>
</g>
</g>
<defs>
<clipPath id="clip0_372_7486">
<path d="M0 8C0 3.58172 3.58172 0 8 0H16C20.4183 0 24 3.58172 24 8V16C24 20.4183 20.4183 24 16 24H8C3.58172 24 0 20.4183 0 16V8Z" fill="white"/>
</clipPath>
</defs>
</svg>
