<svg width="24" height="24" viewBox="0 0 24 24" fill="none" xmlns="http://www.w3.org/2000/svg">
<path d="M0 8C0 3.58172 3.58172 0 8 0H16C20.4183 0 24 3.58172 24 8V16C24 20.4183 20.4183 24 16 24H8C3.58172 24 0 20.4183 0 16V8Z" fill="#F47226"/>
<mask id="mask0_610_131" style="mask-type:luminance" maskUnits="userSpaceOnUse" x="4" y="8" width="16" height="8">
<path d="M20 8H4V16H20V8Z" fill="white"/>
</mask>
<g mask="url(#mask0_610_131)">
<path d="M10.3582 11.4188C10.3472 11.3842 10.3396 11.3487 10.3336 11.3128C10.3309 11.2962 10.3278 11.2796 10.3241 11.2633C10.3164 11.2276 10.3076 11.1921 10.2983 11.1568C10.4537 10.9198 11.197 9.6835 10.3512 8.89009C9.41249 8.00946 8.31569 9.16369 8.31569 9.16369L8.31908 9.16886C7.8261 9.01796 7.2916 9.00024 6.77154 9.16362C6.76512 9.15692 5.67191 8.01205 4.73596 8.89009C3.7997 9.76836 4.81071 11.1893 4.81599 11.1968C4.80522 11.2301 4.79653 11.2644 4.79079 11.2989C4.68951 11.907 4 12.0947 4 13.1538C4 14.213 4.72133 15.0842 6.19364 15.0842H6.79778C6.8005 15.0881 7.0493 15.4431 7.56006 15.4428C8.03422 15.4424 8.34738 15.0873 8.35009 15.0842H8.92652C10.3988 15.0842 11.1202 14.2335 11.1202 13.1538C11.1202 12.1675 10.5222 11.9369 10.3582 11.4188Z" fill="#F9F4D6"/>
<path d="M19.9251 9.87563C19.9251 9.87563 20.0497 8.71495 19.1033 8.46553V8H18.3704V8.45388C17.3721 8.67631 17.5008 9.87563 17.5008 9.87563V10.0746C17.5008 10.0746 17.372 11.2743 18.3707 11.4964L18.3707 12.4929C17.3184 12.6859 17.4513 13.9247 17.4513 13.9247V14.1237C17.4513 14.1237 17.3227 15.3231 18.321 15.5454V15.9994H19.0539V15.5338C20.0003 15.2844 19.8758 14.1237 19.8758 14.1237C19.9171 14.1237 19.9507 14.0899 19.9507 14.0483V14.0001C19.9507 13.9585 19.9171 13.9247 19.8758 13.9247C19.8758 13.9247 19.9992 12.774 19.0662 12.5179V11.4964H19.0552C20.0538 11.2743 19.9251 10.0746 19.9251 10.0746C19.9665 10.0746 20 10.0409 20 9.9992V9.95108C20 9.90942 19.9665 9.87563 19.9251 9.87563ZM19.3279 13.9247H19.2608C19.2195 13.9247 19.1859 13.9585 19.1859 14.0001V14.0483C19.1859 14.0899 19.2195 14.1237 19.2608 14.1237H19.3279C19.3279 14.8437 19.0904 14.9649 19.0105 14.9852C18.9974 14.9886 18.9847 14.9788 18.9847 14.9652V14.7356C18.9847 14.6088 18.9044 14.5393 18.8241 14.5015C18.7226 14.4537 18.6044 14.4537 18.503 14.5015C18.4227 14.5393 18.3424 14.6088 18.3424 14.7356V14.9652C18.3424 14.9786 18.3299 14.9886 18.3169 14.9854C18.2375 14.9653 17.9992 14.8451 17.9992 14.1237V13.9247C17.9992 13.2047 18.2366 13.0836 18.3165 13.0631C18.3296 13.0598 18.3424 13.0696 18.3424 13.0833V13.3127C18.3424 13.4396 18.4227 13.5091 18.503 13.547C18.6044 13.5947 18.7226 13.5947 18.8241 13.547C18.9044 13.5091 18.9847 13.4396 18.9847 13.3127V13.0833C18.9847 13.0698 18.9971 13.0598 19.0101 13.063C19.0896 13.0831 19.3279 13.2033 19.3279 13.9247ZM19.3102 10.0746H19.3773C19.3773 10.7961 19.139 10.9163 19.0595 10.9363C19.0465 10.9396 19.034 10.9295 19.034 10.9161V10.6866C19.034 10.5598 18.9538 10.4902 18.8735 10.4524C18.772 10.4047 18.6539 10.4047 18.5523 10.4524C18.4721 10.4902 18.3918 10.5598 18.3918 10.6866V10.9161C18.3918 10.9297 18.379 10.9396 18.3659 10.9362C18.286 10.9158 18.0486 10.7946 18.0486 10.0746V9.87563C18.0486 9.15422 18.2869 9.03397 18.3664 9.01397C18.3793 9.01071 18.3918 9.0208 18.3918 9.03422V9.26369C18.3918 9.39058 18.4721 9.46006 18.5523 9.49791C18.6539 9.54566 18.772 9.54566 18.8735 9.49791C18.9538 9.46006 19.034 9.39058 19.034 9.26369V9.03422C19.034 9.02055 19.0468 9.01077 19.06 9.01409C19.1398 9.03446 19.3773 9.15563 19.3773 9.87563H19.3102C19.2689 9.87563 19.2353 9.90942 19.2353 9.95108V9.9992C19.2353 10.0409 19.2689 10.0746 19.3102 10.0746Z" fill="#F9F4D6"/>
<path d="M16.3037 11.9254C16.3037 11.9254 16.433 10.7191 15.4253 10.5018V9.41803C16.4062 9.18652 16.279 8 16.279 8C16.279 8 15.7288 8 15.7311 8C15.7311 8.72142 15.4927 8.84166 15.4134 8.86166C15.4004 8.86492 15.3879 8.85483 15.3879 8.84148V8.61194C15.3879 8.48508 15.3076 8.41558 15.2273 8.37777C15.1258 8.33001 15.0076 8.33001 14.9062 8.37777C14.8259 8.41558 14.7456 8.48508 14.7456 8.61194V8.84148C14.7456 8.85508 14.7329 8.86486 14.7197 8.86154C14.6398 8.84117 14.4023 8.72 14.4023 8C14.4047 8 13.8545 8 13.8545 8C13.8545 8 13.7225 9.23126 14.7643 9.42997V10.5003C13.7492 10.7137 13.8792 11.9254 13.8792 11.9254V12.1244C13.8792 12.1244 13.7492 13.3361 14.7643 13.5494V14.57C13.7225 14.7688 13.8545 16 13.8545 16C13.8545 16 14.4047 16 14.4023 16C14.4023 15.2786 14.6407 15.1583 14.7201 15.1383C14.7331 15.1351 14.7456 15.1451 14.7456 15.1585V15.3881C14.7456 15.5149 14.8259 15.5844 14.9062 15.6222C15.0076 15.67 15.1258 15.67 15.2273 15.6222C15.3076 15.5844 15.3879 15.5149 15.3879 15.3881V15.1585C15.3879 15.1449 15.4006 15.1351 15.4138 15.1385C15.4937 15.1588 15.7311 15.28 15.7311 16C15.7288 16 16.279 16 16.279 16C16.279 16 16.4062 14.8135 15.4253 14.582V13.5479C16.433 13.3306 16.3037 12.1243 16.3037 12.1243C16.345 12.1243 16.3786 12.0906 16.3786 12.0489V12.0007C16.3786 11.9591 16.345 11.9254 16.3037 11.9254ZM15.6887 12.1244H15.7558C15.7558 12.8458 15.5175 12.9661 15.438 12.9861C15.4251 12.9894 15.4126 12.9793 15.4126 12.9659V12.7364C15.4126 12.6095 15.3323 12.54 15.252 12.5022C15.1505 12.4544 15.0324 12.4544 14.9309 12.5022C14.8506 12.54 14.7703 12.6095 14.7703 12.7364V12.9659C14.7703 12.9795 14.7575 12.9893 14.7444 12.986C14.6646 12.9656 14.4271 12.8444 14.4271 12.1244V11.9254C14.4271 11.204 14.6654 11.0838 14.7449 11.0638C14.7578 11.0605 14.7703 11.0706 14.7703 11.084V11.3135C14.7703 11.4404 14.8506 11.5098 14.9309 11.5476C15.0324 11.5954 15.1505 11.5954 15.252 11.5476C15.3323 11.5098 15.4126 11.4404 15.4126 11.3135V11.084C15.4126 11.0703 15.4254 11.0606 15.4385 11.0639C15.5183 11.0842 15.7558 11.2054 15.7558 11.9254H15.6887C15.6474 11.9254 15.6138 11.9592 15.6138 12.0009V12.049C15.6138 12.0906 15.6474 12.1244 15.6887 12.1244Z" fill="#F9F4D6"/>
</g>
</svg>
