<svg width="24" height="24" viewBox="0 0 24 24" fill="none" xmlns="http://www.w3.org/2000/svg">
<path d="M0 8C0 3.58172 3.58172 0 8 0H16C20.4183 0 24 3.58172 24 8V16C24 20.4183 20.4183 24 16 24H8C3.58172 24 0 20.4183 0 16V8Z" fill="#0075FF"/>
<path d="M17.9849 11.5929C17.7601 8.2859 14.8982 5.78818 11.5928 6.0131C9.9458 6.12504 8.5 6.89223 7.49063 8.04147L7.48756 8.03942C7.48037 8.04865 7.47421 8.05791 7.46805 8.06715C6.46585 9.22358 5.90212 10.76 6.01404 12.4073C6.02432 12.5645 6.0428 12.7185 6.06539 12.8716C6.06539 12.8788 6.06745 12.8849 6.06847 12.8921C6.08387 12.9927 6.10134 13.0934 6.12083 13.192C6.12083 13.1941 6.12083 13.1961 6.12187 13.1971C6.14035 13.2865 6.15986 13.3759 6.18244 13.4642C6.87557 16.2279 9.46421 18.1854 12.4071 17.9851C15.7125 17.7602 18.2108 14.8979 17.9859 11.5909L17.9849 11.5929ZM16.6788 11.6823C16.7064 12.089 16.6808 12.4874 16.6079 12.8716C16.6079 12.8695 16.6059 12.8674 16.6059 12.8654C16.1705 11.8024 15.31 11.0342 14.5542 10.61C14.7073 8.80866 14.0963 8.04865 13.4042 7.92541C13.3857 7.92131 13.3662 7.91822 13.3477 7.91617C12.7983 7.84531 12.2962 8.23353 12.2264 8.78297C12.1556 9.33244 12.5437 9.83468 13.0931 9.90447C13.1413 9.91066 13.1885 9.9127 13.2347 9.91168C13.2378 9.97229 13.2399 10.037 13.2399 10.1048C12.6002 9.9466 12.0025 9.9148 11.4573 9.96407C11.253 9.97739 11.0497 10.0031 10.8463 10.0411C10.9141 9.43308 11.1431 8.74907 11.5857 8.24996C12.0139 7.76623 12.6505 7.48996 13.3446 7.56082C13.4761 7.57418 13.6167 7.60704 13.743 7.64914C13.7492 7.6512 13.7553 7.65326 13.7605 7.65428C15.3685 8.30953 16.5525 9.83672 16.6778 11.6823H16.6788ZM12.4965 12.5984C12.4965 12.5984 12.4965 12.5994 12.4954 12.6004C12.3527 12.8069 12.1823 13.0102 11.982 13.2074C11.6822 12.889 11.4419 12.545 11.2591 12.1896C11.2499 12.1701 11.2396 12.1526 11.2304 12.1331V12.1311C11.1236 11.9041 11.0322 11.6545 10.9613 11.3824C11.3875 11.2817 11.8054 11.2448 12.2048 11.2643C12.2264 11.2653 12.247 11.2663 12.2685 11.2673H12.2705C12.5211 11.2879 12.7819 11.3341 13.0519 11.4081C12.9257 11.8271 12.7491 12.2081 12.5324 12.544C12.5211 12.5614 12.5098 12.5789 12.4975 12.5974L12.4965 12.5984ZM10.4469 7.57315C10.4469 7.57315 10.4449 7.57623 10.4438 7.57725C9.74044 8.48514 9.50634 9.61384 9.5166 10.4806C7.87981 11.2489 7.52863 12.1578 7.76685 12.8192C7.77302 12.8377 7.78021 12.8551 7.7874 12.8726C8.00098 13.3831 8.58834 13.6244 9.09868 13.4108C9.60902 13.1971 9.85032 12.6097 9.63674 12.0992C9.61826 12.0551 9.59563 12.013 9.57205 11.9729C9.62336 11.9391 9.67881 11.9051 9.7384 11.8702C9.92114 12.5039 10.1912 13.039 10.5064 13.4868C10.6205 13.6562 10.7437 13.8195 10.8781 13.9766C10.3175 14.2221 9.61106 14.3659 8.95693 14.2324C8.32443 14.103 7.76685 13.6901 7.48037 13.0534C7.42595 12.9322 7.38384 12.7945 7.35715 12.6641C7.34072 12.5501 7.32737 12.4351 7.31915 12.318C7.17335 10.1685 8.50618 8.25509 10.4469 7.57315ZM12.3178 16.6798C11.0414 16.7671 9.84822 16.3316 8.94667 15.5572C10.0844 15.7124 11.179 15.3508 11.9245 14.9082C13.4083 15.9424 14.3714 15.7924 14.8253 15.2553C14.8377 15.2409 14.85 15.2255 14.8612 15.2101C15.197 14.7695 15.1118 14.1409 14.6713 13.8051C14.2308 13.4693 13.6024 13.5546 13.2666 13.9951C13.2378 14.0332 13.2122 14.0742 13.1896 14.1153C13.1351 14.0876 13.0776 14.0567 13.0191 14.0228C13.4771 13.5474 13.8026 13.0451 14.0326 12.5481C14.123 12.3642 14.202 12.1753 14.2708 11.9801C14.7637 12.3437 15.2422 12.8829 15.4537 13.5165C15.6581 14.1286 15.58 14.8188 15.1714 15.3847C15.0943 15.4915 14.9958 15.5973 14.8962 15.6856C14.8952 15.6867 14.8931 15.6887 14.892 15.6897C14.1774 16.2515 13.2922 16.613 12.3188 16.6788L12.3178 16.6798Z" fill="white"/>
<path style="mix-blend-mode:multiply" opacity="0.4" d="M11.5929 6.01309C9.94579 6.12503 8.50005 6.89222 7.49064 8.04146C7.48345 8.04968 7.47524 8.05892 7.46805 8.06714C7.66417 8.26227 8.30697 8.64638 8.56678 8.80661C9.07814 8.25714 9.7199 7.82784 10.4479 7.57314C10.4983 7.5074 10.5516 7.44271 10.6071 7.38006C11.2848 6.61492 12.21 6.2113 13.2841 6.2113C13.4031 6.2113 13.6465 6.23082 13.6516 6.23082C13.0006 6.0439 12.3075 5.96379 11.5929 6.01309Z" fill="url(#paint0_linear_372_7300)"/>
<path style="mix-blend-mode:multiply" opacity="0.4" d="M12.3176 16.6807C11.0412 16.768 9.84803 16.3325 8.94648 15.5581C8.86228 15.5469 8.77808 15.5335 8.69389 15.5161C7.69273 15.3117 6.87947 14.7119 6.34347 13.7824C6.2839 13.6787 6.23052 13.574 6.18225 13.4661C6.87537 16.2298 9.46402 18.1874 12.4059 17.9871C12.4192 17.6841 12.3299 16.9806 12.3166 16.6807H12.3176Z" fill="url(#paint1_linear_372_7300)"/>
<path style="mix-blend-mode:multiply" opacity="0.4" d="M17.985 11.5929C17.8002 11.5744 16.9006 11.6453 16.6789 11.6823C16.7066 12.089 16.6809 12.4875 16.6081 12.8716C16.6388 12.9476 16.6686 13.0256 16.6953 13.1047C17.0187 14.0742 16.9058 15.0776 16.3698 16.0081C16.3113 16.1098 16.2476 16.2073 16.1809 16.3008C16.1798 16.3029 16.1778 16.3049 16.1768 16.3059C16.1768 16.3059 16.1798 16.3039 16.1809 16.3019C17.3997 15.1156 18.1093 13.4231 17.985 11.5939V11.5929Z" fill="url(#paint2_linear_372_7300)"/>
<path style="mix-blend-mode:multiply" opacity="0.5" d="M13.3455 7.55979C13.4769 7.57314 13.6176 7.60601 13.7439 7.64812C13.7501 7.65017 13.7562 7.65222 13.7613 7.65326C14.2789 7.86379 14.7523 8.16574 15.1609 8.53853C15.1609 8.53853 15.163 8.53955 15.164 8.54057C15.3611 8.31568 15.74 8.06818 15.74 8.06818C15.74 8.06818 15.1599 7.47455 14.2717 7.28969C13.6504 7.16028 12.2488 7.03601 11.3647 8.54057C11.3647 8.54057 11.3678 8.53751 11.3729 8.53241C11.4387 8.43381 11.5074 8.33726 11.5865 8.24892C12.0147 7.7652 12.6514 7.48893 13.3455 7.55979Z" fill="url(#paint3_linear_372_7300)"/>
<path style="mix-blend-mode:multiply" opacity="0.5" d="M15.1715 15.3858C15.0945 15.4926 14.9959 15.5983 14.8963 15.6867C14.8922 15.6908 14.887 15.6949 14.883 15.699C14.4414 16.0421 13.9434 16.3008 13.4166 16.4683C13.4166 16.4683 13.4146 16.4683 13.4136 16.4693C13.5101 16.7527 13.5347 17.2046 13.5347 17.2046C13.5347 17.2046 14.3387 16.9992 14.9425 16.3224C15.3646 15.8489 16.1737 14.6966 15.3132 13.1787C15.3132 13.1787 15.3142 13.1838 15.3163 13.19C15.3697 13.2958 15.4179 13.4046 15.4549 13.5166C15.6593 14.1287 15.5813 14.8188 15.1725 15.3847L15.1715 15.3858Z" fill="url(#paint4_linear_372_7300)"/>
<path style="mix-blend-mode:multiply" opacity="0.5" d="M7.48265 13.0554C7.42823 12.9342 7.38613 12.7966 7.35944 12.6662C7.3584 12.66 7.35635 12.6539 7.35533 12.6477C7.27934 12.0941 7.30398 11.5334 7.42208 10.9931V10.9901C7.1284 10.9325 6.72485 10.7272 6.72485 10.7272C6.72485 10.7272 6.501 11.5272 6.78543 12.3878C6.98464 12.9907 7.57712 14.2673 9.32174 14.2806C9.32174 14.2806 9.31658 14.2796 9.3104 14.2776C9.19236 14.2704 9.07425 14.2581 8.95819 14.2344C8.32569 14.1051 7.76811 13.6922 7.48163 13.0554H7.48265Z" fill="url(#paint5_linear_372_7300)"/>
<path style="mix-blend-mode:multiply" opacity="0.6" d="M13.093 9.9034C13.1413 9.90952 13.1885 9.91163 13.2347 9.91061C13.2347 9.91061 13.2029 9.28714 13.1269 8.96674C13.0499 8.64736 12.937 8.43474 12.8137 8.31458C12.7244 8.22831 12.444 8.1215 12.2264 8.78082C12.1555 9.33029 12.5437 9.83253 13.093 9.90238V9.9034Z" fill="url(#paint6_linear_372_7300)"/>
<path style="mix-blend-mode:multiply" opacity="0.5" d="M9.63759 12.1012C9.61911 12.0571 9.59648 12.0149 9.5729 11.9749C9.5729 11.9749 9.04816 12.3138 8.80997 12.5397C8.57172 12.7657 8.44438 12.9701 8.40231 13.1375C8.3725 13.2577 8.41977 13.5534 9.09953 13.4127C9.60987 13.1991 9.85117 12.6116 9.63759 12.1012Z" fill="url(#paint7_linear_372_7300)"/>
<path style="mix-blend-mode:multiply" opacity="0.6" d="M13.2679 13.994C13.2391 14.032 13.2135 14.0731 13.1909 14.1142C13.1909 14.1142 13.7464 14.3986 14.0617 14.4921C14.3768 14.5854 14.6171 14.5937 14.7825 14.5464C14.9016 14.5126 15.1336 14.3226 14.6726 13.8051C14.2321 13.4693 13.6036 13.5546 13.2679 13.995V13.994Z" fill="url(#paint8_linear_372_7300)"/>
<path style="mix-blend-mode:multiply" opacity="0.3" d="M13.052 11.4091C12.9256 11.8281 12.749 12.2091 12.5324 12.545C12.5211 12.5624 12.5098 12.5799 12.4975 12.5984C12.4975 12.5984 12.4975 12.5994 12.4964 12.6005C12.3537 12.8069 12.1832 13.0102 11.983 13.2074C12.1206 13.3533 12.2685 13.495 12.4317 13.6296C12.6371 13.7907 12.8374 13.9212 13.0191 14.0239C13.4771 13.5484 13.8026 13.0462 14.0326 12.5491C14.1229 12.3653 14.202 12.1763 14.2708 11.9812C14.0593 11.8261 13.8457 11.7018 13.6485 11.6176C13.4452 11.5303 13.246 11.4625 13.0509 11.4091H13.052Z" fill="url(#paint9_linear_372_7300)"/>
<path style="mix-blend-mode:multiply" opacity="0.3" d="M8.94665 15.5583C10.0844 15.7133 11.179 15.3518 11.9245 14.9092C11.8362 14.8475 11.7458 14.7818 11.6534 14.712C11.3659 14.4922 11.1071 14.2457 10.8771 13.9777C10.3165 14.2231 9.61002 14.3669 8.95589 14.2334C8.32339 14.104 7.76581 13.6911 7.47933 13.0543C7.42491 12.9332 7.3828 12.7956 7.35611 12.6651C7.52142 13.8257 8.10672 14.8383 8.94563 15.5583H8.94665Z" fill="url(#paint10_linear_372_7300)"/>
<path style="mix-blend-mode:multiply" opacity="0.3" d="M11.9832 13.2074C11.6834 12.889 11.4431 12.5449 11.2604 12.1896C11.2511 12.1701 11.2408 12.1526 11.2316 12.1331V12.131C11.1248 11.9041 11.0334 11.6545 10.9626 11.3824C10.7674 11.4286 10.5713 11.4861 10.3742 11.56C10.1318 11.6566 9.91927 11.7654 9.73959 11.8702C9.92239 12.5039 10.1924 13.0389 10.5077 13.4867C10.6216 13.6562 10.7449 13.8195 10.8794 13.9766C11.1196 13.8719 11.3343 13.7476 11.5057 13.6192C11.6824 13.4867 11.8405 13.3481 11.9843 13.2063L11.9832 13.2074Z" fill="url(#paint11_linear_372_7300)"/>
<path style="mix-blend-mode:multiply" opacity="0.3" d="M10.4438 7.57724C9.7405 8.48512 9.50633 9.61382 9.51665 10.4806C9.61417 10.4344 9.71685 10.3892 9.82367 10.344C10.1574 10.2043 10.5003 10.1037 10.8464 10.039C10.9141 9.43103 11.1431 8.74702 11.5857 8.24788C12.0139 7.76415 12.6505 7.48788 13.3447 7.55875C13.4761 7.5721 13.6168 7.60497 13.7431 7.64708C13.7492 7.64913 13.7554 7.65118 13.7606 7.65221C13.1208 7.39134 12.4144 7.2681 11.6802 7.31843C11.2489 7.34821 10.8361 7.43551 10.4459 7.57313C10.4449 7.57415 10.4438 7.5762 10.4428 7.57724H10.4438Z" fill="url(#paint12_linear_372_7300)"/>
<path style="mix-blend-mode:multiply" opacity="0.3" d="M16.6072 12.8635C16.1718 11.8005 15.3113 11.0323 14.5555 10.6081C14.5463 10.7159 14.535 10.8269 14.5196 10.9429C14.4734 11.3013 14.3892 11.6485 14.2721 11.9813C14.765 12.3448 15.2435 12.884 15.455 13.5177C15.6594 14.1298 15.5813 14.82 15.1726 15.3859C15.0956 15.4926 14.997 15.5984 14.8975 15.6868C14.8965 15.6878 14.8944 15.6898 14.8933 15.6908C15.7744 14.9987 16.3977 14.0004 16.6112 12.8707C16.6112 12.8686 16.6093 12.8665 16.6093 12.8645L16.6072 12.8635Z" fill="url(#paint13_linear_372_7300)"/>
<path style="mix-blend-mode:multiply" opacity="0.3" d="M10.8432 10.762C10.8699 10.9818 10.9099 11.1872 10.9613 11.3823C11.3875 11.2817 11.8054 11.2447 12.2048 11.2642C12.2264 11.2652 12.2469 11.2662 12.2685 11.2673H12.2705C12.5211 11.2878 12.7819 11.334 13.0519 11.408C13.1094 11.2159 13.1577 11.0167 13.1926 10.8092C13.2306 10.5504 13.2419 10.3111 13.2409 10.1027C12.6011 9.94447 12.0035 9.91267 11.4583 9.96194C11.2539 9.97532 11.0506 10.0009 10.8474 10.039C10.8186 10.2998 10.8175 10.5474 10.8442 10.7609L10.8432 10.762Z" fill="url(#paint14_linear_372_7300)"/>
<defs>
<linearGradient id="paint0_linear_372_7300" x1="11.6853" y1="6.86962" x2="9.73011" y2="7.4384" gradientUnits="userSpaceOnUse">
<stop stop-color="#0070EB"/>
<stop offset="1" stop-color="white"/>
</linearGradient>
<linearGradient id="paint1_linear_372_7300" x1="7.99153" y1="14.3257" x2="9.62659" y2="16.0323" gradientUnits="userSpaceOnUse">
<stop stop-color="#0070EB"/>
<stop offset="1" stop-color="white"/>
</linearGradient>
<linearGradient id="paint2_linear_372_7300" x1="16.7652" y1="14.0691" x2="17.3342" y2="12.3397" gradientUnits="userSpaceOnUse">
<stop stop-color="#0070EB"/>
<stop offset="1" stop-color="white"/>
</linearGradient>
<linearGradient id="paint3_linear_372_7300" x1="12.5753" y1="7.85968" x2="15.1959" y2="8.45926" gradientUnits="userSpaceOnUse">
<stop stop-color="#0070EB"/>
<stop offset="1" stop-color="white"/>
</linearGradient>
<linearGradient id="paint4_linear_372_7300" x1="15.2975" y1="14.5686" x2="13.4661" y2="16.5386" gradientUnits="userSpaceOnUse">
<stop stop-color="#0070EB"/>
<stop offset="1" stop-color="white"/>
</linearGradient>
<linearGradient id="paint5_linear_372_7300" x1="8.12668" y1="13.5726" x2="7.33638" y2="11.0024" gradientUnits="userSpaceOnUse">
<stop stop-color="#0070EB"/>
<stop offset="1" stop-color="white"/>
</linearGradient>
<linearGradient id="paint6_linear_372_7300" x1="13.1484" y1="8.82601" x2="12.3196" y2="9.65574" gradientUnits="userSpaceOnUse">
<stop stop-color="#0070EB"/>
<stop offset="1" stop-color="white"/>
</linearGradient>
<linearGradient id="paint7_linear_372_7300" x1="8.67746" y1="12.5903" x2="9.81001" y2="12.8945" gradientUnits="userSpaceOnUse">
<stop stop-color="#0070EB"/>
<stop offset="1" stop-color="white"/>
</linearGradient>
<linearGradient id="paint8_linear_372_7300" x1="14.1724" y1="14.5809" x2="13.8691" y2="13.449" gradientUnits="userSpaceOnUse">
<stop stop-color="#0070EB"/>
<stop offset="1" stop-color="white"/>
</linearGradient>
<linearGradient id="paint9_linear_372_7300" x1="12.4482" y1="13.574" x2="12.9463" y2="12.8871" gradientUnits="userSpaceOnUse">
<stop stop-color="#0070EB"/>
<stop offset="1" stop-color="white"/>
</linearGradient>
<linearGradient id="paint10_linear_372_7300" x1="10.7354" y1="13.2762" x2="9.74036" y2="13.7505" gradientUnits="userSpaceOnUse">
<stop stop-color="#0070EB"/>
<stop offset="1" stop-color="white"/>
</linearGradient>
<linearGradient id="paint11_linear_372_7300" x1="10.3742" y1="11.6196" x2="10.6823" y2="12.2594" gradientUnits="userSpaceOnUse">
<stop stop-color="#0070EB"/>
<stop offset="1" stop-color="white"/>
</linearGradient>
<linearGradient id="paint12_linear_372_7300" x1="11.8065" y1="9.64359" x2="11.5938" y2="8.90929" gradientUnits="userSpaceOnUse">
<stop stop-color="#0070EB"/>
<stop offset="1" stop-color="white"/>
</linearGradient>
<linearGradient id="paint13_linear_372_7300" x1="14.1047" y1="13.0072" x2="14.7209" y2="13.1489" gradientUnits="userSpaceOnUse">
<stop stop-color="#0070EB"/>
<stop offset="1" stop-color="white"/>
</linearGradient>
<linearGradient id="paint14_linear_372_7300" x1="13.1382" y1="10.9253" x2="12.3568" y2="10.7836" gradientUnits="userSpaceOnUse">
<stop stop-color="#0070EB"/>
<stop offset="1" stop-color="white"/>
</linearGradient>
</defs>
</svg>
